<svg width="174" height="32" viewBox="0 0 174 32" fill="none" xmlns="http://www.w3.org/2000/svg">
<g clip-path="url(#clip0_416_3474)">
<path d="M106.995 9.7058H111.546V11.5541C112.66 10.0605 114.037 9.37361 115.813 9.37361C117.474 9.37361 118.611 10.038 119.56 11.5541C120.769 10.0605 122.168 9.34863 124.016 9.34863C126.979 9.34863 128.688 10.9621 128.688 13.7095V22.2915H123.757V15.5578C123.757 14.0168 123.282 13.3049 122.073 13.3049C120.864 13.3049 120.294 14.0392 120.294 15.6053V22.2915H115.386V15.7252C115.386 14.0417 114.911 13.3074 113.632 13.3074C112.518 13.3074 111.926 14.0667 111.926 15.5353V22.2915H106.995V9.7033V9.7058Z" fill="white"/>
<path d="M139.218 21.0853C137.937 22.2242 136.49 22.7438 134.642 22.7438C131.774 22.7438 130.185 21.2751 130.185 18.7375C130.185 15.9401 131.939 15.1584 135.661 14.6838C138.079 14.3766 139.123 14.494 139.123 13.3326C139.123 12.5983 138.531 12.2886 137.322 12.2886C136.278 12.2886 135.733 12.6907 135.638 13.5449H130.755C130.802 10.7225 133.078 9.25391 137.489 9.25391C139.79 9.25391 141.544 9.75094 142.398 10.3204C143.727 11.2221 144.009 12.1687 144.009 13.8521V20.8705C144.009 21.3201 144.199 21.6997 144.554 21.937V22.2917H139.528L139.221 21.0828L139.218 21.0853ZM135.281 18.5951C135.281 19.307 135.778 19.7341 136.703 19.7341C138.386 19.7341 139.098 18.9748 139.098 17.3163C139.098 17.104 139.098 16.8892 139.073 16.6769C136.75 17.5536 135.279 17.3888 135.279 18.5976L135.281 18.5951Z" fill="white"/>
<path d="M146.211 9.70621H150.645V11.3172C151.642 9.96597 152.921 9.37402 154.724 9.37402C157.924 9.37402 160.2 11.9816 160.2 16.0353C160.2 20.089 157.994 22.7215 154.627 22.7215C153.086 22.7215 151.949 22.2245 151.07 21.1105V27.3447H146.208V9.70621H146.211ZM153.183 13.1205C151.689 13.1205 151.072 14.0446 151.072 16.0353C151.072 18.0259 151.759 18.8801 153.136 18.8801C154.512 18.8801 155.199 17.931 155.199 16.0353C155.199 14.1396 154.56 13.1205 153.183 13.1205Z" fill="white"/>
<path d="M165.774 18.3354C165.774 19.4019 166.318 19.9239 167.41 19.9239C168.502 19.9239 169.046 19.5443 169.046 18.8799C169.046 17.9782 168.334 17.8833 166.935 17.5761C163.046 16.7469 161.245 16.06 161.245 13.4025C161.245 10.745 163.356 9.25391 167.433 9.25391C171.202 9.25391 173.266 10.6051 173.573 13.2127H169.069C168.999 12.4784 168.382 11.9789 167.48 11.9789C166.578 11.9789 166.129 12.311 166.129 12.8555C166.129 13.7572 166.958 13.7572 168.524 14.1119C172.271 14.9661 174 15.6529 174 18.3779C174 21.2452 171.747 22.7388 167.338 22.7388C163.258 22.7388 161.125 21.2701 160.913 18.3304H165.774V18.3354Z" fill="white"/>
<path d="M16.0029 26.6675H26.6697V5.335H16.0029V0H32.0055V32H16.0029V26.6675Z" fill="#73D19C"/>
<path d="M7.37012 16.0005C7.37012 20.7685 11.2346 24.6299 16.0009 24.6299V7.37109C11.2321 7.37109 7.37012 11.235 7.37012 16.0005Z" fill="#73D19C"/>
<path d="M52.4553 14.4013C52.4553 12.1959 52.0532 11.1543 50.1796 11.1543C48.1887 11.1543 47.0021 12.4356 47.0021 14.711V22.0366H44.8912V14.4038C44.8912 12.1984 44.489 11.1568 42.6155 11.1568C40.647 11.1568 39.4379 12.4606 39.4379 14.7135V22.0391H37.3521V9.64077H39.343V11.3941C40.2673 9.99543 41.5013 9.33105 43.2075 9.33105C44.7713 9.33105 45.8155 9.94798 46.5974 11.2742C47.6641 9.94548 48.8981 9.33105 50.5818 9.33105C52.2655 9.33105 53.4271 9.94798 54.0441 11.0145C54.5188 11.8687 54.5412 12.9102 54.5412 14.239V22.0391H52.4553V14.4063V14.4013Z" fill="white"/>
<path d="M67.3927 18.0282C66.943 20.7781 64.8796 22.4366 61.9619 22.4366C58.547 22.4366 56.3887 19.9939 56.3887 15.9651C56.3887 11.6742 58.547 9.23145 61.9619 9.23145C65.3767 9.23145 67.5575 11.4843 67.5575 15.5131C67.5575 15.8203 67.5575 16.13 67.535 16.4372H58.572C58.6194 19.0697 59.9484 20.5383 62.1517 20.5383C63.8579 20.5383 64.997 19.6367 65.3292 18.0257H67.3927V18.0282ZM65.3767 14.7088C65.3542 12.361 64.1427 11.0822 62.0343 11.0822C59.9259 11.0822 58.7618 12.3385 58.572 14.7088H65.3767Z" fill="white"/>
<path d="M69.2417 9.6353H71.2573V11.8632C71.9217 10.1798 73.0581 9.37305 74.6941 9.37305C74.8839 9.37305 75.0488 9.37305 75.2386 9.39552V11.601C75.0737 11.5785 74.9064 11.5785 74.7415 11.5785C72.5136 11.5785 71.3272 12.8123 71.3272 15.1351V22.0337H69.2417V9.6353Z" fill="white"/>
<path d="M81.3793 22.4366C78.0594 22.4366 75.8062 19.829 75.8062 15.7978C75.8062 11.7666 78.0344 9.23145 81.4018 9.23145C83.2754 9.23145 84.3895 10.0382 85.3138 11.1996V9.63606H87.3297V21.7747C87.3297 25.5437 85.6685 27.2021 81.5442 27.2021C78.2018 27.2021 76.3033 25.8034 76.3033 23.5755V23.4806H78.3417V23.528C78.3417 24.8093 79.4333 25.4487 81.6142 25.4487C84.2946 25.4487 85.3138 24.4772 85.3138 22.2243V20.5184C84.342 21.7997 83.038 22.4391 81.3768 22.4391L81.3793 22.4366ZM77.9895 15.8452C77.9895 18.8549 79.3884 20.5633 81.6641 20.5633C84.2021 20.5633 85.3862 19.0697 85.3862 15.9177C85.3862 12.7656 84.1047 11.1047 81.6391 11.1047C79.3159 11.1047 77.987 12.7631 77.987 15.8452H77.9895Z" fill="white"/>
<path d="M89.7979 4.99023H91.8834V7.36051H89.7979V4.99023ZM89.7979 9.63588H91.8834V22.0343H89.7979V9.63588Z" fill="white"/>
<path d="M102.602 14.4009C102.602 12.1954 102.105 11.1764 100.112 11.1764C97.8109 11.1764 96.437 12.5276 96.437 14.9703V22.0362H94.3511V9.63783H96.342V11.4386C97.2913 10.0175 98.5953 9.32812 100.326 9.32812C102.2 9.32812 103.479 9.89759 104.168 11.0115C104.691 11.8183 104.713 12.7899 104.713 13.9987V22.0362H102.602V14.4034V14.4009Z" fill="white"/>
<path d="M16.0026 26.6675H5.33337V5.335H16.0026V0H0V32H16.0026V26.6675Z" fill="white"/>
<path d="M24.6333 16.0005C24.6333 20.7685 20.7687 24.6299 16.0024 24.6299V7.37109C20.7712 7.37109 24.6333 11.235 24.6333 16.0005Z" fill="white"/>
</g>
<defs>
<clipPath id="clip0_416_3474">
<rect width="174" height="32" fill="white"/>
</clipPath>
</defs>
</svg>
