<svg width="172" height="34" viewBox="0 0 172 34" fill="none" xmlns="http://www.w3.org/2000/svg">
<path fill-rule="evenodd" clip-rule="evenodd" d="M0 17.0279C0 18.6224 0.22957 20.1637 0.648909 21.6257C0.673785 21.7249 0.69724 21.8226 0.72638 21.9204C0.732777 21.9395 0.740595 21.9558 0.748413 21.9749C2.8714 28.8167 9.27805 33.8012 16.8311 33.8012C20.3244 33.8012 23.5732 32.7345 26.2662 30.9112C26.2933 30.8964 26.3203 30.8822 26.3451 30.8652C26.5051 30.7568 26.66 30.6428 26.81 30.5238C29.9074 28.243 32.1939 24.9322 33.1569 21.1015C33.2109 20.9252 33.2578 20.746 33.2976 20.5646C33.3062 20.5221 33.309 20.4796 33.3119 20.4371C33.54 19.3364 33.6615 18.1945 33.6615 17.0279C33.6615 14.7641 33.2166 12.5668 32.3388 10.4992C32.1704 10.1025 31.7113 9.91695 31.3132 10.0848C30.9152 10.252 30.7283 10.7103 30.8967 11.107C31.6928 12.9812 32.0958 14.9737 32.0958 17.0279C32.0958 18.2866 31.9387 19.5099 31.648 20.6801C31.417 21.4189 31.0098 22.1024 30.449 22.7222C30.4625 22.4573 30.4724 22.1895 30.4724 21.9168C30.4788 18.9241 29.648 15.7635 28.1078 12.7921C29.2372 11.8252 29.9564 10.6317 30.2045 9.29574C30.2834 8.87216 30.0019 8.46558 29.5769 8.38766C29.1526 8.30762 28.7432 8.58883 28.665 9.01312C28.5015 9.89641 28.0417 10.7053 27.321 11.3952C27.0971 11.0255 26.8647 10.6607 26.6181 10.3002C25.2442 8.29274 23.6116 6.55591 21.8248 5.17041C24.1831 5.32483 26.3629 5.89433 28.1192 6.87183C28.3942 7.02837 28.7602 7.02341 29.0168 6.80949C29.3495 6.53466 29.3935 6.04095 29.1163 5.70945C26.5946 2.19329 22.2328 0.254578 16.8311 0.254578C7.55094 0.254578 0 7.7792 0 17.0279M17.2242 2.54179C16.5163 2.2712 15.8155 2.06224 15.126 1.91208C15.6797 1.85045 16.2398 1.81574 16.8091 1.81504C17.0756 1.81858 17.4026 2.13804 17.7459 2.7557C17.5724 2.68133 17.3983 2.60837 17.2242 2.54179M18.9207 1.92908C19.5561 1.9992 20.2327 2.10829 20.9293 2.27049C20.4929 2.50354 20.0408 2.79608 19.5817 3.14599C19.377 2.68558 19.1567 2.27899 18.9207 1.92908M21.5576 3.59933C22.0949 3.25295 22.5889 3.01495 23.0025 2.91649C23.7879 3.23029 24.5661 3.63049 25.3046 4.13695C24.1205 3.84299 22.8611 3.66308 21.5576 3.59933M8.85658 5.65491C9.03071 4.84599 9.51828 4.12208 10.2745 3.52424C12.1011 2.98024 14.227 3.11129 16.4615 3.92658C15.5212 4.08949 14.5816 4.30554 13.6534 4.58462C11.9263 5.10099 10.2973 5.80649 8.80469 6.66499C8.77058 6.32358 8.78693 5.98499 8.85658 5.65491M7.38818 5.08824C7.36615 5.16758 7.34341 5.24691 7.32635 5.32908C7.16785 6.06504 7.18633 6.8187 7.37326 7.56741C5.68808 8.72483 4.22324 10.0947 3.05762 11.6332C2.70154 12.1015 2.38383 12.5796 2.09598 13.0605C2.96238 9.86595 4.85012 7.08645 7.38818 5.08824M10.755 10.0593C10.1075 9.45583 9.61565 8.82541 9.28445 8.19287C10.7514 7.31312 12.3748 6.59629 14.104 6.07849C15.1324 5.77037 16.1737 5.54158 17.2114 5.38362C15.7124 7.05741 14.2156 9.18383 12.8446 11.5851C12.0613 11.1339 11.3577 10.6225 10.755 10.0593M17.4445 13.3106C16.3116 13.0697 15.2348 12.7234 14.2433 12.2892C15.7039 9.7427 17.3016 7.52845 18.8774 5.88229C19.3699 7.81249 19.7828 10.4085 19.957 13.6272C19.1275 13.5939 18.2832 13.4898 17.4445 13.3106M20.5483 6.16279C22.3287 7.48312 23.9599 9.18666 25.3245 11.1792C25.5832 11.5575 25.827 11.9414 26.0594 12.3288C24.8078 13.0492 23.2271 13.4799 21.5206 13.601C21.3756 10.9086 21.0558 8.31824 20.5483 6.16279M4.8821 20.6617C3.5523 19.4362 2.63757 18.14 2.17203 16.8522C2.54091 15.4087 3.25521 13.9608 4.30711 12.5732C5.30428 11.2571 6.54453 10.0721 7.96744 9.05349C8.37825 9.79299 8.95324 10.5148 9.68459 11.199C10.3804 11.8486 11.1921 12.4372 12.0912 12.9522C11.8438 13.4204 11.6008 13.8964 11.3648 14.3802C9.976 17.2163 8.84165 20.2593 8.17569 23.0211C6.94112 22.3262 5.82952 21.5343 4.8821 20.6617M15.0344 25.557C13.0955 25.1426 11.2632 24.5292 9.60428 23.7521C10.1487 21.3098 11.1629 18.3497 12.7714 15.0644C13.0045 14.5884 13.2433 14.1209 13.4871 13.6612C14.6115 14.1641 15.834 14.5636 17.1168 14.8363C18.092 15.0446 19.0657 15.1579 20.0209 15.1905C20.038 15.7756 20.0465 16.3791 20.0465 17.001C20.0465 20.6744 19.7516 23.7245 19.3265 26.1066C17.9257 26.0464 16.4843 25.8651 15.0344 25.557M21.6116 17.001C21.6116 16.3918 21.6031 15.7798 21.5853 15.17C23.532 15.041 25.3359 14.5367 26.8128 13.6902C28.1789 16.3862 28.9131 19.2294 28.9067 21.9133C28.9052 22.691 28.8384 23.4305 28.7148 24.1282C28.0111 24.5582 27.2023 24.9301 26.2911 25.2361C24.6749 25.778 22.8533 26.074 20.9229 26.1236C21.3877 23.3498 21.6116 20.1304 21.6116 17.001M2.15213 21.1908C2.01851 20.6836 1.93464 20.1672 1.90053 19.6424C2.42293 20.3833 3.06046 21.1086 3.81883 21.807C4.96383 22.8617 6.32349 23.8052 7.83879 24.6142C7.52962 26.3397 7.4422 27.9022 7.63836 29.1631C5.02638 27.1939 3.07255 24.408 2.15213 21.1908M10.224 30.7412C10.1779 30.7037 10.1281 30.6683 10.0727 30.6414C9.20271 30.2192 8.8516 28.2876 9.30435 25.3331C10.9746 26.0811 12.7948 26.674 14.7067 27.0813C16.1559 27.3901 17.6001 27.5807 19.0117 27.6543C18.3194 30.6534 17.4317 32.2273 16.8446 32.2273C16.8062 32.2273 16.7707 32.2337 16.7345 32.2387C14.4046 32.2231 12.1971 31.689 10.224 30.7412M20.6258 27.6862C22.8369 27.6593 24.9343 27.337 26.7901 26.7151C27.2577 26.5578 27.7027 26.385 28.1256 26.1959C27.6096 27.4539 26.8498 28.5015 25.8625 29.2821C23.9108 30.7143 21.608 31.6961 19.1083 32.0715C19.7345 30.9941 20.2391 29.4733 20.6258 27.6862" fill="#231F20"/>
<mask id="mask0_1_206" style="mask-type:luminance" maskUnits="userSpaceOnUse" x="0" y="0" width="34" height="34">
<path fill-rule="evenodd" clip-rule="evenodd" d="M0 17.0279C0 18.6224 0.22957 20.1637 0.648909 21.6257C0.673785 21.7249 0.69724 21.8226 0.72638 21.9204C0.732777 21.9395 0.740595 21.9558 0.748413 21.9749C2.8714 28.8167 9.27805 33.8012 16.8311 33.8012C20.3244 33.8012 23.5732 32.7345 26.2662 30.9112C26.2933 30.8964 26.3203 30.8822 26.3451 30.8652C26.5051 30.7568 26.66 30.6428 26.81 30.5238C29.9074 28.243 32.1939 24.9322 33.1569 21.1015C33.2109 20.9252 33.2578 20.746 33.2976 20.5646C33.3062 20.5221 33.309 20.4796 33.3119 20.4371C33.54 19.3364 33.6615 18.1945 33.6615 17.0279C33.6615 14.7641 33.2166 12.5668 32.3388 10.4992C32.1704 10.1025 31.7113 9.91695 31.3132 10.0848C30.9152 10.252 30.7283 10.7103 30.8967 11.107C31.6928 12.9812 32.0958 14.9737 32.0958 17.0279C32.0958 18.2866 31.9387 19.5099 31.648 20.6801C31.417 21.4189 31.0098 22.1024 30.449 22.7222C30.4625 22.4573 30.4724 22.1895 30.4724 21.9168C30.4788 18.9241 29.648 15.7635 28.1078 12.7921C29.2372 11.8252 29.9564 10.6317 30.2045 9.29574C30.2834 8.87216 30.0019 8.46558 29.5769 8.38766C29.1526 8.30762 28.7432 8.58883 28.665 9.01312C28.5015 9.89641 28.0417 10.7053 27.321 11.3952C27.0971 11.0255 26.8647 10.6607 26.6181 10.3002C25.2442 8.29274 23.6116 6.55591 21.8248 5.17041C24.1831 5.32483 26.3629 5.89433 28.1192 6.87183C28.3942 7.02837 28.7602 7.02341 29.0168 6.80949C29.3495 6.53466 29.3935 6.04095 29.1163 5.70945C26.5946 2.19329 22.2328 0.254578 16.8311 0.254578C7.55094 0.254578 0 7.7792 0 17.0279M17.2242 2.54179C16.5163 2.2712 15.8155 2.06224 15.126 1.91208C15.6797 1.85045 16.2398 1.81574 16.8091 1.81504C17.0756 1.81858 17.4026 2.13804 17.7459 2.7557C17.5724 2.68133 17.3983 2.60837 17.2242 2.54179M18.9207 1.92908C19.5561 1.9992 20.2327 2.10829 20.9293 2.27049C20.4929 2.50354 20.0408 2.79608 19.5817 3.14599C19.377 2.68558 19.1567 2.27899 18.9207 1.92908M21.5576 3.59933C22.0949 3.25295 22.5889 3.01495 23.0025 2.91649C23.7879 3.23029 24.5661 3.63049 25.3046 4.13695C24.1205 3.84299 22.8611 3.66308 21.5576 3.59933M8.85658 5.65491C9.03071 4.84599 9.51828 4.12208 10.2745 3.52424C12.1011 2.98024 14.227 3.11129 16.4615 3.92658C15.5212 4.08949 14.5816 4.30554 13.6534 4.58462C11.9263 5.10099 10.2973 5.80649 8.80469 6.66499C8.77058 6.32358 8.78693 5.98499 8.85658 5.65491M7.38818 5.08824C7.36615 5.16758 7.34341 5.24691 7.32635 5.32908C7.16785 6.06504 7.18633 6.8187 7.37326 7.56741C5.68808 8.72483 4.22324 10.0947 3.05762 11.6332C2.70154 12.1015 2.38383 12.5796 2.09598 13.0605C2.96238 9.86595 4.85012 7.08645 7.38818 5.08824M10.755 10.0593C10.1075 9.45583 9.61565 8.82541 9.28445 8.19287C10.7514 7.31312 12.3748 6.59629 14.104 6.07849C15.1324 5.77037 16.1737 5.54158 17.2114 5.38362C15.7124 7.05741 14.2156 9.18383 12.8446 11.5851C12.0613 11.1339 11.3577 10.6225 10.755 10.0593M17.4445 13.3106C16.3116 13.0697 15.2348 12.7234 14.2433 12.2892C15.7039 9.7427 17.3016 7.52845 18.8774 5.88229C19.3699 7.81249 19.7828 10.4085 19.957 13.6272C19.1275 13.5939 18.2832 13.4898 17.4445 13.3106M20.5483 6.16279C22.3287 7.48312 23.9599 9.18666 25.3245 11.1792C25.5832 11.5575 25.827 11.9414 26.0594 12.3288C24.8078 13.0492 23.2271 13.4799 21.5206 13.601C21.3756 10.9086 21.0558 8.31824 20.5483 6.16279M4.8821 20.6617C3.5523 19.4362 2.63757 18.14 2.17203 16.8522C2.54091 15.4087 3.25521 13.9608 4.30711 12.5732C5.30428 11.2571 6.54453 10.0721 7.96744 9.05349C8.37825 9.79299 8.95324 10.5148 9.68459 11.199C10.3804 11.8486 11.1921 12.4372 12.0912 12.9522C11.8438 13.4204 11.6008 13.8964 11.3648 14.3802C9.976 17.2163 8.84165 20.2593 8.17569 23.0211C6.94112 22.3262 5.82952 21.5343 4.8821 20.6617M15.0344 25.557C13.0955 25.1426 11.2632 24.5292 9.60428 23.7521C10.1487 21.3098 11.1629 18.3497 12.7714 15.0644C13.0045 14.5884 13.2433 14.1209 13.4871 13.6612C14.6115 14.1641 15.834 14.5636 17.1168 14.8363C18.092 15.0446 19.0657 15.1579 20.0209 15.1905C20.038 15.7756 20.0465 16.3791 20.0465 17.001C20.0465 20.6744 19.7516 23.7245 19.3265 26.1066C17.9257 26.0464 16.4843 25.8651 15.0344 25.557M21.6116 17.001C21.6116 16.3918 21.6031 15.7798 21.5853 15.17C23.532 15.041 25.3359 14.5367 26.8128 13.6902C28.1789 16.3862 28.9131 19.2294 28.9067 21.9133C28.9052 22.691 28.8384 23.4305 28.7148 24.1282C28.0111 24.5582 27.2023 24.9301 26.2911 25.2361C24.6749 25.778 22.8533 26.074 20.9229 26.1236C21.3877 23.3498 21.6116 20.1304 21.6116 17.001M2.15213 21.1908C2.01851 20.6836 1.93464 20.1672 1.90053 19.6424C2.42293 20.3833 3.06046 21.1086 3.81883 21.807C4.96383 22.8617 6.32349 23.8052 7.83879 24.6142C7.52962 26.3397 7.4422 27.9022 7.63836 29.1631C5.02638 27.1939 3.07255 24.408 2.15213 21.1908M10.224 30.7412C10.1779 30.7037 10.1281 30.6683 10.0727 30.6414C9.20271 30.2192 8.8516 28.2876 9.30435 25.3331C10.9746 26.0811 12.7948 26.674 14.7067 27.0813C16.1559 27.3901 17.6001 27.5807 19.0117 27.6543C18.3194 30.6534 17.4317 32.2273 16.8446 32.2273C16.8062 32.2273 16.7707 32.2337 16.7345 32.2387C14.4046 32.2231 12.1971 31.689 10.224 30.7412M20.6258 27.6862C22.8369 27.6593 24.9343 27.337 26.7901 26.7151C27.2577 26.5578 27.7027 26.385 28.1256 26.1959C27.6096 27.4539 26.8498 28.5015 25.8625 29.2821C23.9108 30.7143 21.608 31.6961 19.1083 32.0715C19.7345 30.9941 20.2391 29.4733 20.6258 27.6862" fill="white"/>
</mask>
<g mask="url(#mask0_1_206)">
<rect y="0.254578" width="33.7603" height="33.6458" fill="url(#paint0_radial_1_206)"/>
</g>
<path fill-rule="evenodd" clip-rule="evenodd" d="M130.578 17.6423H132.746V17.7556C132.794 18.2248 132.626 18.6906 132.289 19.0214C131.951 19.3522 131.481 19.512 131.011 19.4556C129.59 19.4556 128.737 18.2869 128.737 16.3389C128.737 14.391 129.547 13.1939 130.969 13.1939C131.437 13.1939 131.887 13.3813 132.215 13.7143C132.544 14.0472 132.725 14.4977 132.717 14.9648V15.0781L134.672 14.7735V14.6885C134.568 12.737 132.899 11.2377 130.94 11.3381C128.161 11.3381 126.569 13.1585 126.569 16.3389C126.569 19.5194 128.211 21.2973 130.969 21.2973C133.726 21.2973 134.714 19.3706 134.714 17.7556V16.0344H130.578V17.6423ZM149.206 11.3381C151.339 11.3381 153.599 12.6485 153.599 16.3389C153.599 20.0294 151.332 21.2973 149.206 21.2973C147.081 21.2973 144.793 19.9868 144.793 16.3389C144.793 12.691 147.074 11.3381 149.206 11.3381ZM167.764 11.4231C170.252 11.4231 171.623 12.6202 171.623 14.8019C171.623 16.856 170.273 18.0814 168.013 18.0814H166.428V21.2264H164.331V11.4231H167.764ZM166.428 16.3814H167.686C168.901 16.3814 169.52 15.8573 169.52 14.8089C169.52 13.7606 168.844 13.1585 167.622 13.1585H166.435L166.428 16.3814ZM158.78 19.4344C159.917 19.4344 160.472 18.726 160.472 17.3094L160.436 11.4302H162.568V17.1677C162.568 20.6102 160.507 21.3185 158.78 21.3185C157.757 21.3818 156.752 21.0291 155.994 20.341C155.231 19.4668 154.854 18.3226 154.949 17.1677V11.4302H157.046V17.3094C157.046 18.726 157.643 19.4344 158.78 19.4344ZM151.431 16.3389C151.431 19.0731 150.038 19.4839 149.206 19.4839C147.785 19.4839 146.96 18.3648 146.96 16.3389C146.96 14.3131 147.785 13.1939 149.206 13.1939C150.01 13.1939 151.431 13.6048 151.431 16.3389ZM142.632 18.2585C142.973 18.9668 143.279 19.5618 143.968 19.5618H144.466V21.1768H144.395C144.061 21.248 143.72 21.2813 143.378 21.276C141.722 21.276 141.211 20.1427 140.763 19.151C140.4 18.3293 140.052 17.621 139.213 17.621H138.289V21.2264H136.157V11.4231H139.647C142.199 11.4231 143.385 12.4148 143.385 14.5398C143.413 15.6089 142.785 16.5873 141.8 17.0118C142.134 17.3803 142.403 17.8017 142.597 18.2585H142.632ZM139.427 16.006H138.254V13.1727H139.576C140.685 13.1727 141.317 13.711 141.317 14.5894C141.317 15.4677 140.592 16.006 139.427 16.006ZM121.814 11.4231H124.302L120.699 16.2681L124.508 21.2264H121.985L118.644 16.7144V21.2264H116.512V11.4231H118.644V15.8431L121.814 11.4231ZM112.447 17.4794L109.007 11.4231H106.875V21.2264H109.007V15.3756L112.44 21.2264H114.572V11.4231H112.475L112.447 17.4794ZM106.384 21.2264L102.795 11.4869L102.774 11.4231H100.691L97.0805 21.2264H99.2767L100.087 18.8252H103.363L104.209 21.2264H106.384ZM101.729 14.0935L100.663 17.1889H102.795L101.729 14.0935ZM96.8744 18.4427C96.9214 17.3403 96.1998 16.351 95.1331 16.0556H95.1686C95.6448 15.8927 96.2631 15.411 96.2631 14.0581C96.2631 12.3085 95.1899 11.4231 93.0577 11.4231H89.2694V21.2264H93.4202C95.6164 21.2264 96.8744 20.2135 96.8744 18.4427ZM92.8302 15.4323C93.7045 15.4323 94.1167 15.0639 94.1167 14.2777C94.1167 13.4914 93.5978 13.1514 92.5744 13.1514H91.4016V15.4323H92.8302ZM93.0506 19.4981H91.4088V16.9552H93.0079C93.74 16.9552 94.6142 17.1819 94.6142 18.2302C94.6142 19.0944 94.1167 19.4981 93.0506 19.4981ZM80.6765 11.4231C83.7398 11.4231 85.5664 13.3144 85.5664 16.4877C85.5664 19.4981 83.9317 21.2264 81.0888 21.2264H77.7554V11.4231H80.6765ZM81.0745 19.4981H79.8521L79.845 13.1514H80.641C82.5316 13.1514 83.484 14.2635 83.484 16.4594C83.484 18.3577 82.5813 19.4981 81.0745 19.4981ZM72.4461 11.4231H70.3139V21.2264H76.7106V19.4981H72.4461V11.4231ZM68.864 19.5618C68.1745 19.5618 67.876 18.9668 67.5278 18.2585H67.5562C67.3623 17.8017 67.0933 17.3803 66.7602 17.0118C67.7535 16.5939 68.3902 15.614 68.3664 14.5398C68.3664 12.4148 67.1795 11.4231 64.6279 11.4231H61.0742V21.2264H63.2064V17.621H64.1091C64.9478 17.621 65.296 18.3293 65.6585 19.151L65.7194 19.2765C66.1839 20.2358 66.6875 21.276 68.274 21.276C68.6155 21.2813 68.9565 21.248 69.2904 21.1768H69.3615V19.5618H68.864ZM63.2064 16.006H64.3721C65.5377 16.006 66.2626 15.4677 66.2626 14.5894C66.2626 13.711 65.6301 13.1727 64.5284 13.1727H63.2064V16.006ZM55.534 11.3381L55.5304 11.3381H55.5375L55.534 11.3381ZM51.1238 16.3389C51.1238 12.6789 53.4028 11.3396 55.534 11.3381C57.6652 11.3396 59.9228 12.6506 59.9228 16.3389C59.9228 20.0294 57.6555 21.2973 55.5304 21.2973C53.4053 21.2973 51.1238 20.001 51.1238 16.3389ZM55.5375 19.4839C56.3691 19.4839 57.7693 19.0731 57.7693 16.3389C57.7693 13.6048 56.3478 13.1939 55.5375 13.1939C54.116 13.1939 53.2916 14.3131 53.2916 16.3389C53.2916 18.3648 54.0876 19.4839 55.5375 19.4839ZM50.804 11.4231H48.4301L46.7101 18.5773L44.7911 11.4231H43.0355L41.0455 18.5773L39.3965 11.4231H36.9587L39.8017 21.2264H42.1684L43.9169 15.0781L45.6298 21.2264H47.961L50.804 11.4231Z" fill="#002F54"/>
<defs>
<radialGradient id="paint0_radial_1_206" cx="0" cy="0" r="1" gradientUnits="userSpaceOnUse" gradientTransform="translate(32.3411 7.53305) scale(28.1438 28.0484)">
<stop stop-color="white"/>
<stop offset="0.06" stop-color="#EBF9FE"/>
<stop offset="0.18" stop-color="#B6E8FA"/>
<stop offset="0.36" stop-color="#60CDF5"/>
<stop offset="0.54" stop-color="#00AEEF"/>
<stop offset="1" stop-color="#002F54"/>
</radialGradient>
</defs>
</svg>
