<svg width="342" height="70" viewBox="0 0 342 70" fill="none" xmlns="http://www.w3.org/2000/svg">
<g clip-path="url(#clip0_126_26761)">
<path d="M92.126 41.608H130.394V3.339H92.126V41.608Z" fill="#009FE3"/>
<path d="M40.937 3.339V18.33H26.437V3.339H17.116V41.607H26.437V25.853H40.937V41.607H50.259V3.339H40.937Z" fill="#151F37"/>
<path d="M0 41.608H9.322V3.339H0V41.608Z" fill="#151F37"/>
<path d="M84.331 10.808V3.339H58.054V41.607H84.331V34.138H67.374V25.752H81.875V18.33H67.374V10.808H84.331Z" fill="#151F37"/>
<path d="M7.346 49.402H0V67.034H7.346C9.189 67.034 10.803 66.647 12.19 65.875C13.576 65.103 14.644 64.045 15.391 62.7C16.137 61.356 16.51 59.845 16.51 58.168C16.51 56.475 16.137 54.964 15.391 53.636C14.644 52.308 13.576 51.27 12.19 50.523C10.803 49.776 9.189 49.402 7.346 49.402ZM6.849 62.103H5.528V54.233H6.849C8.093 54.233 9.082 54.574 9.812 55.254C10.542 55.935 10.907 56.906 10.907 58.168C10.907 59.431 10.542 60.401 9.812 61.082C9.082 61.764 8.093 62.103 6.849 62.103Z" fill="#151F37"/>
<path d="M32.909 53.81V49.402H20.449V67.034H32.909V62.626H25.977V60.135H31.456V55.976H25.977V53.81H32.909Z" fill="#151F37"/>
<path d="M43.336 49.402H37.807V67.034H48.665V62.85H43.336V49.402Z" fill="#151F37"/>
<path d="M53.207 49.402V67.034H58.736V60.384H63.716V56.225H58.736V53.785H65.66V49.402H53.207Z" fill="#151F37"/>
<path d="M69.488 49.402V53.785H74.12V67.034H79.649V53.785H84.33V49.402H69.488Z" fill="#151F37"/>
<path d="M145.984 18.849H150.296V3.33901H145.984V18.849ZM161.054 6.39701C160.218 6.39701 159.477 6.57001 158.832 6.91401C158.187 7.25901 157.673 7.71001 157.292 8.26701V6.50701H152.98V18.849H157.292V12.227C157.292 11.523 157.475 10.97 157.842 10.566C158.209 10.163 158.715 9.96101 159.36 9.96101C159.976 9.96101 160.467 10.163 160.834 10.566C161.201 10.97 161.384 11.523 161.384 12.227V18.849H165.696V11.655C165.696 10.042 165.278 8.76201 164.442 7.81601C163.606 6.87001 162.477 6.39701 161.054 6.39701ZM173.55 19.003C174.591 19.003 175.497 18.838 176.267 18.508C177.037 18.178 177.631 17.727 178.049 17.155C178.467 16.583 178.676 15.938 178.676 15.219C178.676 14.325 178.452 13.617 178.005 13.096C177.557 12.576 177.037 12.198 176.443 11.963C175.849 11.729 175.104 11.516 174.21 11.325C173.462 11.164 172.919 11.006 172.582 10.852C172.244 10.698 172.076 10.475 172.076 10.181C172.076 9.94701 172.167 9.76301 172.351 9.63101C172.534 9.49901 172.802 9.43301 173.154 9.43301C173.608 9.43301 173.971 9.54001 174.243 9.75201C174.514 9.96501 174.686 10.269 174.76 10.665H178.654C178.507 9.37501 177.972 8.33301 177.048 7.54101C176.124 6.74901 174.854 6.35301 173.242 6.35301C172.156 6.35301 171.229 6.52901 170.459 6.88101C169.689 7.23301 169.106 7.70601 168.71 8.30001C168.314 8.89401 168.116 9.55801 168.116 10.291C168.116 11.142 168.332 11.817 168.765 12.315C169.197 12.814 169.707 13.173 170.294 13.393C170.88 13.613 171.614 13.811 172.494 13.987C173.271 14.163 173.828 14.325 174.166 14.471C174.503 14.618 174.672 14.845 174.672 15.153C174.672 15.388 174.569 15.579 174.364 15.725C174.158 15.872 173.88 15.945 173.528 15.945C173.073 15.945 172.692 15.835 172.384 15.615C172.076 15.395 171.892 15.087 171.834 14.691H167.654C167.712 15.513 167.995 16.25 168.501 16.902C169.007 17.555 169.696 18.068 170.569 18.442C171.441 18.816 172.435 19.003 173.55 19.003ZM187.036 15.175C186.669 15.175 186.409 15.102 186.255 14.955C186.101 14.809 186.024 14.567 186.024 14.229V10.093H188.268V6.50701H186.024V3.51501H181.69V6.50701H180.172V10.093H181.69V14.163C181.69 17.287 183.266 18.849 186.42 18.849H188.29V15.175H187.036ZM192.668 5.36301C193.416 5.36301 194.021 5.15401 194.483 4.73601C194.945 4.31801 195.176 3.79401 195.176 3.16301C195.176 2.51801 194.945 1.98301 194.483 1.55701C194.021 1.13201 193.416 0.919006 192.668 0.919006C191.905 0.919006 191.293 1.13201 190.831 1.55701C190.369 1.98301 190.138 2.51801 190.138 3.16301C190.138 3.79401 190.369 4.31801 190.831 4.73601C191.293 5.15401 191.905 5.36301 192.668 5.36301ZM190.49 18.849H194.802V6.50701H190.49V18.849ZM203.514 15.175C203.147 15.175 202.887 15.102 202.733 14.955C202.579 14.809 202.502 14.567 202.502 14.229V10.093H204.746V6.50701H202.502V3.51501H198.168V6.50701H196.65V10.093H198.168V14.163C198.168 17.287 199.744 18.849 202.898 18.849H204.768V15.175H203.514ZM215.261 6.50701V13.129C215.261 13.833 215.078 14.387 214.711 14.79C214.345 15.194 213.846 15.395 213.215 15.395C212.599 15.395 212.104 15.194 211.729 14.79C211.356 14.387 211.169 13.833 211.169 13.129V6.50701H206.879V13.679C206.879 15.307 207.294 16.594 208.122 17.54C208.951 18.486 210.084 18.959 211.521 18.959C212.357 18.959 213.098 18.787 213.743 18.442C214.389 18.098 214.895 17.647 215.261 17.089V18.849H219.595V6.50701H215.261ZM228.307 15.175C227.94 15.175 227.68 15.102 227.526 14.955C227.372 14.809 227.295 14.567 227.295 14.229V10.093H229.539V6.50701H227.295V3.51501H222.961V6.50701H221.443V10.093H222.961V14.163C222.961 17.287 224.538 18.849 227.691 18.849H229.561V15.175H228.307ZM243.553 12.535C243.553 11.274 243.289 10.178 242.761 9.24601C242.233 8.31501 241.499 7.60001 240.561 7.10101C239.622 6.60301 238.544 6.35301 237.327 6.35301C236.095 6.35301 235.006 6.61001 234.06 7.12301C233.114 7.63701 232.377 8.36601 231.849 9.31201C231.321 10.258 231.057 11.377 231.057 12.667C231.057 13.958 231.324 15.08 231.86 16.033C232.395 16.987 233.136 17.72 234.082 18.233C235.028 18.747 236.109 19.003 237.327 19.003C238.339 19.003 239.263 18.813 240.099 18.431C240.935 18.05 241.628 17.526 242.178 16.858C242.728 16.191 243.098 15.432 243.289 14.581H238.691C238.383 15.227 237.869 15.549 237.151 15.549C236.637 15.549 236.216 15.384 235.886 15.054C235.556 14.724 235.369 14.222 235.325 13.547H243.487C243.531 13.21 243.553 12.873 243.553 12.535ZM235.347 11.457C235.449 10.9 235.669 10.478 236.007 10.192C236.344 9.90601 236.777 9.76301 237.305 9.76301C237.833 9.76301 238.273 9.91401 238.625 10.214C238.977 10.515 239.153 10.929 239.153 11.457H235.347ZM260.612 6.50701H258.677C258.705 6.03801 258.83 5.69701 259.051 5.48401C259.271 5.27201 259.614 5.16501 260.084 5.16501C260.289 5.16501 260.45 5.17301 260.568 5.18701V1.51301C260.377 1.49901 260.106 1.49101 259.754 1.49101C258.008 1.49101 256.67 1.91301 255.739 2.75601C254.808 3.60001 254.342 4.81301 254.342 6.39701V6.50701H253V10.093H254.342V18.849H258.677V10.093H260.612V6.50701ZM268.113 19.003C269.346 19.003 270.453 18.747 271.436 18.233C272.418 17.72 273.192 16.983 273.756 16.022C274.321 15.062 274.604 13.943 274.604 12.667C274.604 11.391 274.321 10.277 273.756 9.32301C273.192 8.37001 272.422 7.63701 271.446 7.12301C270.472 6.61001 269.367 6.35301 268.136 6.35301C266.903 6.35301 265.801 6.61001 264.824 7.12301C263.85 7.63701 263.079 8.37001 262.515 9.32301C261.95 10.277 261.667 11.391 261.667 12.667C261.667 13.958 261.946 15.08 262.503 16.033C263.062 16.987 263.827 17.72 264.803 18.233C265.778 18.747 266.881 19.003 268.113 19.003ZM268.113 15.263C267.513 15.263 267.021 15.043 266.64 14.603C266.258 14.163 266.067 13.518 266.067 12.667C266.067 11.831 266.266 11.193 266.661 10.753C267.058 10.313 267.549 10.093 268.136 10.093C268.723 10.093 269.217 10.313 269.62 10.753C270.024 11.193 270.226 11.831 270.226 12.667C270.226 13.503 270.024 14.145 269.62 14.592C269.217 15.04 268.715 15.263 268.113 15.263ZM280.896 8.68501V6.50701H276.583V18.849H280.896V13.459C280.896 12.55 281.122 11.912 281.577 11.545C282.032 11.179 282.729 10.995 283.667 10.995H284.877V6.39701C284.085 6.39701 283.345 6.60301 282.655 7.01301C281.966 7.42401 281.379 7.98101 280.896 8.68501ZM163.264 26.097L161.46 36.613L159.084 26.097H154.354L151.913 36.701L150.108 26.097H145.444L149.207 41.606H154.508L156.687 32.103L158.82 41.606H164.123L167.928 26.097H163.264ZM169.271 35.425C169.271 36.701 169.501 37.82 169.963 38.78C170.425 39.741 171.056 40.477 171.855 40.991C172.654 41.505 173.545 41.761 174.528 41.761C175.364 41.761 176.094 41.593 176.718 41.255C177.341 40.918 177.82 40.463 178.158 39.891V41.606H182.471V29.265H178.158V30.981C177.82 30.409 177.345 29.955 176.729 29.617C176.112 29.28 175.378 29.111 174.528 29.111C173.545 29.111 172.654 29.368 171.855 29.881C171.056 30.395 170.425 31.128 169.963 32.081C169.501 33.035 169.271 34.149 169.271 35.425ZM178.158 35.425C178.158 36.231 177.941 36.863 177.51 37.316C177.076 37.771 176.544 37.999 175.914 37.999C175.269 37.999 174.733 37.767 174.309 37.306C173.883 36.844 173.67 36.217 173.67 35.425C173.67 34.619 173.883 33.992 174.309 33.544C174.733 33.097 175.269 32.873 175.914 32.873C176.544 32.873 177.076 33.101 177.51 33.555C177.941 34.01 178.158 34.633 178.158 35.425ZM191.183 37.933C190.815 37.933 190.556 37.859 190.401 37.713C190.247 37.566 190.17 37.325 190.17 36.987V32.851H192.414V29.265H190.17V26.273H185.836V29.265H184.318V32.851H185.836V36.921C185.836 40.045 187.412 41.606 190.566 41.606H192.437V37.933H191.183ZM206.428 35.293C206.428 34.032 206.163 32.936 205.636 32.004C205.107 31.073 204.374 30.358 203.436 29.859C202.497 29.361 201.419 29.111 200.201 29.111C198.97 29.111 197.88 29.368 196.935 29.881C195.988 30.395 195.251 31.124 194.724 32.07C194.195 33.016 193.932 34.135 193.932 35.425C193.932 36.716 194.199 37.838 194.734 38.791C195.271 39.745 196.011 40.477 196.956 40.991C197.902 41.505 198.984 41.761 200.201 41.761C201.214 41.761 202.138 41.571 202.974 41.188C203.81 40.808 204.502 40.284 205.053 39.616C205.603 38.949 205.974 38.189 206.163 37.339H201.565C201.258 37.984 200.744 38.307 200.025 38.307C199.513 38.307 199.091 38.142 198.761 37.811C198.431 37.481 198.243 36.979 198.199 36.305H206.361C206.405 35.968 206.428 35.631 206.428 35.293ZM198.222 34.215C198.324 33.658 198.544 33.236 198.882 32.95C199.22 32.664 199.651 32.521 200.18 32.521C200.707 32.521 201.147 32.672 201.499 32.972C201.852 33.273 202.027 33.687 202.027 34.215H198.222ZM212.72 31.443V29.265H208.407V41.606H212.72V36.217C212.72 35.308 212.947 34.67 213.401 34.303C213.856 33.937 214.554 33.753 215.491 33.753H216.701V29.155C215.909 29.155 215.169 29.361 214.479 29.771C213.79 30.182 213.203 30.739 212.72 31.443ZM235.922 29.551V26.097H226V41.606H235.922V38.153H230.312V35.359H235.262V32.081H230.312V29.551H235.922ZM237.571 35.425C237.571 36.701 237.803 37.82 238.265 38.78C238.727 39.741 239.356 40.477 240.156 40.991C240.956 41.505 241.847 41.761 242.83 41.761C243.666 41.761 244.392 41.593 245.008 41.255C245.624 40.918 246.1 40.463 246.438 39.891V41.606H250.771V25.327H246.438V30.959C246.086 30.387 245.598 29.936 244.975 29.606C244.351 29.276 243.644 29.111 242.852 29.111C241.869 29.111 240.974 29.368 240.168 29.881C239.36 30.395 238.727 31.128 238.265 32.081C237.803 33.035 237.571 34.149 237.571 35.425ZM246.46 35.425C246.46 36.231 246.243 36.863 245.811 37.316C245.378 37.771 244.846 37.999 244.216 37.999C243.569 37.999 243.035 37.767 242.609 37.306C242.184 36.844 241.972 36.217 241.972 35.425C241.972 34.619 242.184 33.992 242.609 33.544C243.035 33.097 243.569 32.873 244.216 32.873C244.846 32.873 245.378 33.101 245.811 33.555C246.243 34.01 246.46 34.633 246.46 35.425ZM261.75 29.265V35.887C261.75 36.591 261.565 37.144 261.199 37.548C260.833 37.952 260.334 38.153 259.704 38.153C259.088 38.153 258.593 37.952 258.219 37.548C257.845 37.144 257.658 36.591 257.658 35.887V29.265H253.368V36.437C253.368 38.064 253.781 39.351 254.61 40.298C255.438 41.244 256.571 41.717 258.01 41.717C258.846 41.717 259.586 41.545 260.231 41.2C260.877 40.855 261.383 40.405 261.75 39.847V41.606H266.084V29.265H261.75ZM268.063 35.425C268.063 36.716 268.327 37.838 268.854 38.791C269.383 39.745 270.12 40.477 271.065 40.991C272.012 41.505 273.094 41.761 274.311 41.761C275.881 41.761 277.201 41.329 278.271 40.463C279.342 39.598 280.03 38.403 280.339 36.877H275.763C275.514 37.683 275.001 38.087 274.223 38.087C273.681 38.087 273.252 37.859 272.936 37.405C272.621 36.951 272.463 36.291 272.463 35.425C272.463 34.56 272.621 33.904 272.936 33.456C273.252 33.009 273.681 32.785 274.223 32.785C274.985 32.785 275.499 33.189 275.763 33.995H280.339C280.03 32.455 279.342 31.256 278.271 30.398C277.201 29.54 275.881 29.111 274.311 29.111C273.094 29.111 272.012 29.368 271.065 29.881C270.12 30.395 269.383 31.128 268.854 32.081C268.327 33.035 268.063 34.149 268.063 35.425ZM281.637 35.425C281.637 36.701 281.868 37.82 282.33 38.78C282.792 39.741 283.423 40.477 284.222 40.991C285.021 41.505 285.912 41.761 286.895 41.761C287.73 41.761 288.461 41.593 289.084 41.255C289.707 40.918 290.188 40.463 290.524 39.891V41.606H294.837V29.265H290.524V30.981C290.188 30.409 289.711 29.955 289.095 29.617C288.479 29.28 287.746 29.111 286.895 29.111C285.912 29.111 285.021 29.368 284.222 29.881C283.423 30.395 282.792 31.128 282.33 32.081C281.868 33.035 281.637 34.149 281.637 35.425ZM290.524 35.425C290.524 36.231 290.309 36.863 289.876 37.316C289.442 37.771 288.912 37.999 288.28 37.999C287.636 37.999 287.1 37.767 286.675 37.306C286.25 36.844 286.037 36.217 286.037 35.425C286.037 34.619 286.25 33.992 286.675 33.544C287.1 33.097 287.636 32.873 288.28 32.873C288.912 32.873 289.442 33.101 289.876 33.555C290.309 34.01 290.524 34.633 290.524 35.425ZM303.549 37.933C303.182 37.933 302.922 37.859 302.768 37.713C302.613 37.566 302.537 37.325 302.537 36.987V32.851H304.78V29.265H302.537V26.273H298.203V29.265H296.685V32.851H298.203V36.921C298.203 40.045 299.778 41.606 302.933 41.606H304.803V37.933H303.549ZM309.181 28.121C309.929 28.121 310.534 27.912 310.996 27.494C311.458 27.076 311.688 26.552 311.688 25.921C311.688 25.276 311.458 24.741 310.996 24.315C310.534 23.89 309.929 23.677 309.181 23.677C308.418 23.677 307.806 23.89 307.344 24.315C306.882 24.741 306.65 25.276 306.65 25.921C306.65 26.552 306.882 27.076 307.344 27.494C307.806 27.912 308.418 28.121 309.181 28.121ZM307.003 41.606H311.314V29.264H307.003V41.606ZM319.74 41.761C320.973 41.761 322.08 41.505 323.063 40.991C324.045 40.477 324.818 39.741 325.384 38.78C325.947 37.82 326.23 36.701 326.23 35.425C326.23 34.149 325.947 33.035 325.384 32.081C324.818 31.128 324.049 30.395 323.074 29.881C322.098 29.368 320.995 29.111 319.763 29.111C318.53 29.111 317.427 29.368 316.452 29.881C315.476 30.395 314.706 31.128 314.142 32.081C313.577 33.035 313.295 34.149 313.295 35.425C313.295 36.716 313.572 37.838 314.131 38.791C314.688 39.745 315.454 40.477 316.43 40.991C317.404 41.505 318.509 41.761 319.74 41.761ZM319.74 38.02C319.139 38.02 318.647 37.801 318.267 37.361C317.885 36.921 317.694 36.275 317.694 35.425C317.694 34.589 317.893 33.951 318.289 33.511C318.685 33.071 319.176 32.851 319.763 32.851C320.349 32.851 320.844 33.071 321.248 33.511C321.65 33.951 321.853 34.589 321.853 35.425C321.853 36.261 321.65 36.903 321.248 37.35C320.844 37.798 320.342 38.02 319.74 38.02ZM336.285 29.155C335.449 29.155 334.708 29.328 334.063 29.672C333.417 30.017 332.903 30.468 332.522 31.025V29.265H328.21V41.606H332.522V34.985C332.522 34.281 332.706 33.728 333.071 33.324C333.438 32.921 333.944 32.719 334.591 32.719C335.207 32.719 335.697 32.921 336.064 33.324C336.431 33.728 336.614 34.281 336.614 34.985V41.606H340.927V34.413C340.927 32.8 340.509 31.52 339.673 30.574C338.837 29.628 337.707 29.155 336.285 29.155ZM150.274 59.789V63.596C150.274 64.144 150.139 64.568 149.863 64.863C149.589 65.159 149.209 65.307 148.728 65.307C148.252 65.307 147.877 65.159 147.604 64.863C147.33 64.568 147.192 64.144 147.192 63.596V59.789H145.444V63.845C145.444 64.462 145.562 64.993 145.8 65.437C146.038 65.883 146.364 66.22 146.78 66.449C147.196 66.678 147.673 66.792 148.215 66.792C148.639 66.792 149.032 66.705 149.395 66.536C149.756 66.366 150.049 66.131 150.274 65.83V66.703H152.035V59.789H150.274ZM157.652 59.69C157.219 59.69 156.821 59.775 156.459 59.946C156.098 60.114 155.8 60.351 155.566 60.65V59.789H153.82V66.703H155.566V62.884C155.566 62.336 155.707 61.913 155.984 61.619C156.264 61.322 156.644 61.174 157.127 61.174C157.603 61.174 157.976 61.322 158.25 61.619C158.525 61.913 158.662 62.336 158.662 62.884V66.703H160.411V62.647C160.411 61.717 160.156 60.99 159.647 60.47C159.14 59.95 158.476 59.69 157.652 59.69ZM161.684 63.222C161.684 63.93 161.822 64.557 162.102 65.1C162.379 65.646 162.761 66.068 163.243 66.368C163.727 66.666 164.259 66.819 164.842 66.819C165.357 66.819 165.811 66.713 166.202 66.505C166.592 66.296 166.896 66.02 167.112 65.682V66.703H168.886V57.467H167.112V60.75C166.873 60.426 166.547 60.167 166.14 59.97C165.73 59.775 165.303 59.679 164.853 59.679C164.263 59.679 163.727 59.824 163.243 60.112C162.761 60.404 162.379 60.82 162.102 61.361C161.822 61.901 161.684 62.523 161.684 63.222ZM167.126 63.249C167.126 63.67 167.042 64.036 166.876 64.339C166.708 64.643 166.485 64.877 166.202 65.038C165.918 65.2 165.615 65.281 165.29 65.281C164.974 65.281 164.677 65.198 164.399 65.031C164.119 64.865 163.894 64.626 163.725 64.312C163.554 64.001 163.468 63.638 163.468 63.222C163.468 62.807 163.554 62.444 163.725 62.141C163.894 61.84 164.117 61.606 164.393 61.45C164.666 61.29 164.966 61.211 165.29 61.211C165.615 61.211 165.918 61.294 166.202 61.456C166.485 61.619 166.708 61.85 166.876 62.156C167.042 62.458 167.126 62.823 167.126 63.249ZM177.085 63.098C177.085 62.424 176.943 61.825 176.655 61.306C176.368 60.787 175.965 60.385 175.444 60.1C174.925 59.818 174.336 59.679 173.679 59.679C172.996 59.679 172.394 59.824 171.867 60.112C171.345 60.404 170.937 60.82 170.646 61.361C170.355 61.901 170.208 62.531 170.208 63.249C170.208 63.953 170.356 64.579 170.65 65.119C170.946 65.66 171.358 66.078 171.886 66.374C172.416 66.67 173.012 66.819 173.679 66.819C174.503 66.819 175.197 66.603 175.764 66.173C176.328 65.746 176.713 65.198 176.912 64.532H175.025C174.752 65.09 174.29 65.37 173.64 65.37C173.193 65.37 172.813 65.225 172.505 64.945C172.197 64.662 172.023 64.269 171.981 63.771H177.036C177.068 63.57 177.085 63.348 177.085 63.098ZM171.993 62.598C172.059 62.132 172.24 61.767 172.536 61.504C172.832 61.243 173.195 61.112 173.627 61.112C174.085 61.112 174.474 61.249 174.791 61.517C175.106 61.787 175.269 62.146 175.276 62.598H171.993ZM180.169 60.862V59.789H178.421V66.703H180.169V63.26C180.169 62.619 180.308 62.17 180.587 61.911C180.866 61.651 181.279 61.525 181.83 61.525H182.292V59.69C181.826 59.69 181.41 59.793 181.049 60.002C180.688 60.211 180.394 60.497 180.169 60.862ZM191.293 61.225V59.789H189.747V58.078H187.987V59.789H187.16V61.225H187.987V64.558C187.987 65.987 188.721 66.703 190.196 66.703H191.293V65.231H190.482C190.216 65.231 190.026 65.179 189.914 65.074C189.802 64.974 189.747 64.804 189.747 64.57V61.225H191.293ZM196.511 59.69C196.054 59.69 195.638 59.775 195.265 59.946C194.888 60.114 194.59 60.351 194.365 60.65V57.467H192.617V66.703H194.365V62.884C194.365 62.336 194.505 61.913 194.781 61.619C195.06 61.322 195.44 61.174 195.924 61.174C196.398 61.174 196.773 61.322 197.048 61.619C197.322 61.913 197.459 62.336 197.459 62.884V66.703H199.206V62.647C199.206 62.024 199.092 61.489 198.863 61.044C198.634 60.598 198.316 60.263 197.91 60.033C197.503 59.803 197.036 59.69 196.511 59.69ZM207.358 63.098C207.358 62.424 207.214 61.825 206.926 61.306C206.64 60.787 206.237 60.385 205.716 60.1C205.195 59.818 204.607 59.679 203.948 59.679C203.266 59.679 202.664 59.824 202.142 60.112C201.614 60.404 201.208 60.82 200.916 61.361C200.626 61.901 200.48 62.531 200.48 63.249C200.48 63.953 200.628 64.579 200.922 65.119C201.218 65.66 201.629 66.078 202.159 66.374C202.688 66.67 203.283 66.819 203.948 66.819C204.775 66.819 205.469 66.603 206.036 66.173C206.6 65.746 206.982 65.198 207.182 64.532H205.297C205.022 65.09 204.56 65.37 203.913 65.37C203.463 65.37 203.084 65.225 202.776 64.945C202.47 64.662 202.293 64.269 202.254 63.771H207.308C207.34 63.57 207.358 63.348 207.358 63.098ZM202.267 62.598C202.333 62.132 202.513 61.767 202.807 61.504C203.104 61.243 203.469 61.112 203.899 61.112C204.356 61.112 204.745 61.249 205.062 61.517C205.378 61.787 205.54 62.146 205.549 62.598H202.267ZM212.358 63.222C212.358 63.93 212.496 64.557 212.774 65.1C213.055 65.646 213.434 66.068 213.913 66.368C214.39 66.666 214.919 66.819 215.503 66.819C216.018 66.819 216.474 66.71 216.87 66.498C217.267 66.286 217.574 66.017 217.801 65.693V66.703H219.561V59.789H217.801V60.775C217.566 60.46 217.257 60.197 216.87 59.99C216.481 59.78 216.03 59.679 215.517 59.679C214.923 59.679 214.39 59.824 213.913 60.112C213.434 60.404 213.055 60.82 212.774 61.361C212.496 61.901 212.358 62.523 212.358 63.222ZM217.801 63.249C217.801 63.67 217.719 64.036 217.549 64.339C217.382 64.643 217.158 64.877 216.876 65.038C216.594 65.2 216.29 65.281 215.967 65.281C215.649 65.281 215.353 65.198 215.072 65.031C214.793 64.865 214.569 64.626 214.4 64.312C214.229 64.001 214.144 63.638 214.144 63.222C214.144 62.807 214.229 62.444 214.4 62.141C214.569 61.84 214.793 61.606 215.066 61.45C215.34 61.29 215.641 61.211 215.967 61.211C216.29 61.211 216.594 61.294 216.876 61.456C217.158 61.619 217.382 61.85 217.549 62.156C217.719 62.458 217.801 62.823 217.801 63.249ZM226.101 59.789V63.596C226.101 64.144 225.963 64.568 225.688 64.863C225.413 65.159 225.035 65.307 224.552 65.307C224.078 65.307 223.704 65.159 223.43 64.863C223.154 64.568 223.018 64.144 223.018 63.596V59.789H221.271V63.845C221.271 64.462 221.39 64.993 221.624 65.437C221.863 65.883 222.188 66.22 222.604 66.449C223.02 66.678 223.499 66.792 224.04 66.792C224.465 66.792 224.857 66.705 225.22 66.536C225.583 66.366 225.876 66.131 226.101 65.83V66.703H227.861V59.789H226.101ZM232.291 66.819C232.841 66.819 233.32 66.727 233.733 66.55C234.146 66.37 234.463 66.123 234.68 65.806C234.901 65.488 235.014 65.131 235.014 64.73C235.004 64.274 234.882 63.906 234.645 63.626C234.407 63.35 234.126 63.142 233.804 63.009C233.477 62.877 233.066 62.748 232.565 62.624C232.074 62.498 231.713 62.375 231.48 62.255C231.245 62.134 231.129 61.955 231.129 61.724C231.129 61.516 231.216 61.353 231.387 61.237C231.557 61.121 231.8 61.061 232.115 61.061C232.457 61.061 232.729 61.143 232.935 61.306C233.138 61.468 233.252 61.686 233.275 61.961H234.95C234.899 61.263 234.629 60.706 234.138 60.294C233.646 59.883 232.989 59.679 232.167 59.679C231.608 59.679 231.123 59.769 230.711 59.951C230.301 60.134 229.984 60.385 229.764 60.7C229.541 61.016 229.432 61.365 229.432 61.748C229.432 62.216 229.551 62.585 229.789 62.858C230.026 63.133 230.309 63.338 230.636 63.472C230.966 63.604 231.389 63.732 231.902 63.858C232.403 63.991 232.767 64.113 232.995 64.225C233.226 64.339 233.341 64.508 233.341 64.73C233.341 64.938 233.246 65.111 233.059 65.245C232.871 65.376 232.612 65.443 232.279 65.443C231.937 65.443 231.654 65.356 231.423 65.181C231.194 65.007 231.064 64.786 231.03 64.521H229.271C229.295 64.945 229.438 65.331 229.7 65.682C229.963 66.03 230.318 66.306 230.769 66.511C231.218 66.715 231.725 66.819 232.291 66.819ZM238.259 60.787V59.789H236.511V70H238.259V65.717C238.498 66.034 238.813 66.296 239.201 66.505C239.586 66.713 240.034 66.819 240.541 66.819C241.133 66.819 241.668 66.666 242.146 66.368C242.622 66.068 243.002 65.646 243.282 65.1C243.561 64.557 243.699 63.93 243.699 63.222C243.699 62.515 243.561 61.892 243.282 61.354C243.002 60.818 242.622 60.404 242.146 60.112C241.668 59.824 241.133 59.679 240.541 59.679C240.034 59.679 239.582 59.783 239.188 59.996C238.791 60.209 238.48 60.472 238.259 60.787ZM241.913 63.222C241.913 63.646 241.828 64.013 241.66 64.318C241.488 64.628 241.266 64.865 240.985 65.031C240.707 65.198 240.405 65.281 240.079 65.281C239.765 65.281 239.465 65.2 239.188 65.038C238.908 64.877 238.683 64.639 238.515 64.333C238.342 64.024 238.259 63.662 238.259 63.249C238.259 62.831 238.342 62.468 238.515 62.162C238.683 61.852 238.908 61.619 239.188 61.456C239.465 61.294 239.765 61.211 240.079 61.211C240.405 61.211 240.707 61.29 240.985 61.45C241.266 61.606 241.488 61.84 241.66 62.141C241.828 62.444 241.913 62.807 241.913 63.222ZM245.923 58.965C246.23 58.965 246.484 58.867 246.689 58.672C246.893 58.476 246.995 58.232 246.995 57.94C246.995 57.65 246.893 57.408 246.689 57.213C246.484 57.017 246.23 56.919 245.923 56.919C245.612 56.919 245.358 57.017 245.155 57.213C244.948 57.408 244.847 57.65 244.847 57.94C244.847 58.232 244.948 58.476 245.155 58.672C245.358 58.867 245.612 58.965 245.923 58.965ZM245.035 66.703H246.783V59.789H245.035V66.703ZM248.118 63.249C248.118 63.963 248.265 64.589 248.554 65.125C248.848 65.662 249.249 66.078 249.766 66.374C250.28 66.67 250.872 66.819 251.539 66.819C252.388 66.819 253.094 66.596 253.66 66.155C254.227 65.714 254.605 65.119 254.796 64.372H252.912C252.695 65.003 252.233 65.318 251.525 65.318C251.026 65.318 250.632 65.139 250.34 64.774C250.048 64.413 249.904 63.904 249.904 63.249C249.904 62.581 250.048 62.069 250.34 61.705C250.632 61.344 251.026 61.162 251.525 61.162C251.875 61.162 252.169 61.249 252.403 61.419C252.643 61.59 252.812 61.823 252.912 62.124H254.796C254.605 61.35 254.229 60.747 253.666 60.319C253.105 59.892 252.396 59.679 251.539 59.679C250.872 59.679 250.28 59.826 249.766 60.12C249.249 60.416 248.848 60.832 248.554 61.367C248.265 61.904 248.118 62.531 248.118 63.249ZM262.573 63.098C262.573 62.424 262.429 61.825 262.141 61.306C261.854 60.787 261.45 60.385 260.932 60.1C260.409 59.818 259.821 59.679 259.164 59.679C258.481 59.679 257.88 59.824 257.355 60.112C256.832 60.404 256.422 60.82 256.132 61.361C255.842 61.901 255.694 62.531 255.694 63.249C255.694 63.953 255.844 64.579 256.138 65.119C256.434 65.66 256.844 66.078 257.375 66.374C257.903 66.67 258.499 66.819 259.164 66.819C259.99 66.819 260.683 66.603 261.249 66.173C261.815 65.746 262.198 65.198 262.397 64.532H260.512C260.239 65.09 259.775 65.37 259.129 65.37C258.679 65.37 258.3 65.225 257.992 64.945C257.685 64.662 257.507 64.269 257.468 63.771H262.521C262.556 63.57 262.573 63.348 262.573 63.098ZM257.478 62.598C257.546 62.132 257.728 61.767 258.021 61.504C258.317 61.243 258.683 61.112 259.112 61.112C259.572 61.112 259.961 61.249 260.276 61.517C260.593 61.787 260.754 62.146 260.762 62.598H257.478ZM266.554 66.819C267.104 66.819 267.584 66.727 267.994 66.55C268.408 66.37 268.724 66.123 268.947 65.806C269.166 65.488 269.274 65.131 269.274 64.73C269.267 64.274 269.145 63.906 268.907 63.626C268.669 63.35 268.387 63.142 268.065 63.009C267.741 62.877 267.327 62.748 266.828 62.624C266.337 62.498 265.976 62.375 265.741 62.255C265.511 62.134 265.392 61.955 265.392 61.724C265.392 61.516 265.479 61.353 265.648 61.237C265.822 61.121 266.063 61.061 266.379 61.061C266.72 61.061 266.994 61.143 267.197 61.306C267.4 61.468 267.515 61.686 267.54 61.961H269.211C269.162 61.263 268.892 60.706 268.402 60.294C267.909 59.883 267.252 59.679 266.43 59.679C265.871 59.679 265.386 59.769 264.974 59.951C264.563 60.134 264.248 60.385 264.025 60.7C263.806 61.016 263.695 61.365 263.695 61.748C263.695 62.216 263.813 62.585 264.051 62.858C264.289 63.133 264.571 63.338 264.9 63.472C265.229 63.604 265.65 63.732 266.167 63.858C266.664 63.991 267.029 64.113 267.261 64.225C267.487 64.339 267.602 64.508 267.602 64.73C267.602 64.938 267.509 65.111 267.321 65.245C267.134 65.376 266.876 65.443 266.542 65.443C266.201 65.443 265.917 65.356 265.688 65.181C265.457 65.007 265.327 64.786 265.293 64.521H263.536C263.56 64.945 263.701 65.331 263.966 65.682C264.227 66.03 264.581 66.306 265.033 66.511C265.479 66.715 265.99 66.819 266.554 66.819ZM277.227 66.842C277.901 66.842 278.509 66.692 279.056 66.397C279.6 66.102 280.032 65.686 280.354 65.144C280.673 64.602 280.835 63.978 280.835 63.271C280.835 62.564 280.677 61.939 280.365 61.4C280.052 60.858 279.626 60.441 279.085 60.144C278.542 59.85 277.942 59.702 277.274 59.702C276.609 59.702 276.008 59.85 275.467 60.144C274.925 60.441 274.498 60.858 274.187 61.4C273.875 61.939 273.717 62.564 273.717 63.271C273.717 63.978 273.871 64.602 274.173 65.144C274.477 65.686 274.895 66.102 275.428 66.397C275.96 66.692 276.562 66.842 277.227 66.842ZM277.227 65.318C276.726 65.318 276.312 65.142 275.983 64.786C275.654 64.433 275.49 63.928 275.49 63.271C275.49 62.614 275.658 62.109 275.996 61.754C276.333 61.402 276.751 61.225 277.25 61.225C277.749 61.225 278.172 61.402 278.519 61.754C278.862 62.109 279.036 62.614 279.036 63.271C279.036 63.713 278.953 64.087 278.785 64.394C278.621 64.703 278.398 64.933 278.12 65.086C277.84 65.24 277.542 65.318 277.227 65.318ZM285.351 59.812H284.142V59.526C284.142 59.136 284.224 58.865 284.39 58.716C284.558 58.565 284.852 58.496 285.275 58.503V57.029C284.303 57.006 283.575 57.192 283.092 57.592C282.61 57.992 282.368 58.615 282.368 59.463V59.812H281.58V61.25H282.368V66.729H284.142V61.25H285.351V59.812ZM290.551 58.017V63.397C290.551 64.137 290.706 64.762 291.015 65.275C291.322 65.786 291.738 66.171 292.267 66.43C292.796 66.686 293.386 66.817 294.034 66.817C294.691 66.817 295.287 66.686 295.824 66.43C296.362 66.171 296.79 65.786 297.11 65.275C297.432 64.762 297.592 64.137 297.592 63.397V58.017H295.832V63.407C295.832 63.999 295.68 64.45 295.368 64.762C295.063 65.074 294.624 65.23 294.059 65.23C293.502 65.23 293.07 65.074 292.76 64.762C292.452 64.45 292.299 63.999 292.299 63.407V58.017H290.551ZM306.79 58.005H305.043V63.995L301.087 58.005H299.339V66.729H301.087V60.749L305.043 66.729H306.79V58.005ZM313.63 59.426V58.005H308.576V66.729H313.63V65.305H310.321V62.996H313.257V61.611H310.321V59.426H313.63ZM318.286 66.817C318.927 66.817 319.479 66.697 319.944 66.459C320.41 66.223 320.766 65.904 321.008 65.505C321.249 65.105 321.369 64.674 321.369 64.208C321.369 63.665 321.241 63.229 320.982 62.896C320.724 62.564 320.416 62.315 320.06 62.146C319.7 61.98 319.238 61.814 318.673 61.647C318.258 61.524 317.933 61.414 317.706 61.316C317.477 61.223 317.285 61.097 317.132 60.943C316.978 60.789 316.9 60.596 316.9 60.363C316.9 60.031 317.003 59.776 317.205 59.601C317.41 59.426 317.684 59.339 318.023 59.339C318.416 59.339 318.729 59.437 318.966 59.633C319.203 59.828 319.329 60.076 319.349 60.375H321.271C321.211 59.594 320.901 58.984 320.337 58.546C319.777 58.109 319.047 57.891 318.147 57.891C317.548 57.891 317.018 57.994 316.55 58.197C316.086 58.402 315.723 58.694 315.465 59.078C315.206 59.46 315.078 59.909 315.078 60.424C315.078 60.975 315.204 61.414 315.461 61.742C315.713 62.071 316.017 62.317 316.37 62.478C316.724 62.642 317.183 62.806 317.749 62.972C318.165 63.088 318.491 63.195 318.729 63.291C318.966 63.386 319.163 63.516 319.323 63.682C319.479 63.85 319.559 64.062 319.559 64.318C319.559 64.635 319.445 64.891 319.211 65.086C318.979 65.283 318.656 65.38 318.248 65.38C317.85 65.38 317.534 65.277 317.308 65.068C317.078 64.861 316.952 64.577 316.927 64.22H315.053C315.063 64.753 315.206 65.213 315.49 65.605C315.774 65.994 316.159 66.295 316.645 66.505C317.132 66.711 317.68 66.817 318.286 66.817ZM322.518 62.359C322.518 63.216 322.711 63.982 323.1 64.658C323.484 65.33 324.013 65.855 324.682 66.237C325.354 66.613 326.104 66.804 326.937 66.804C327.919 66.804 328.772 66.556 329.501 66.061C330.23 65.565 330.739 64.873 331.029 63.982H329.02C328.82 64.399 328.538 64.713 328.179 64.924C327.816 65.137 327.397 65.244 326.923 65.244C326.415 65.244 325.966 65.125 325.569 64.887C325.173 64.65 324.867 64.312 324.646 63.878C324.425 63.44 324.314 62.935 324.314 62.359C324.314 61.777 324.425 61.268 324.646 60.838C324.867 60.404 325.173 60.07 325.569 59.832C325.966 59.596 326.415 59.475 326.923 59.475C327.397 59.475 327.816 59.582 328.179 59.788C328.538 59.996 328.82 60.309 329.02 60.723H331.029C330.739 59.842 330.229 59.151 329.497 58.652C328.761 58.153 327.909 57.904 326.937 57.904C326.104 57.904 325.354 58.093 324.682 58.474C324.013 58.85 323.484 59.379 323.1 60.057C322.711 60.734 322.518 61.502 322.518 62.359ZM336.637 66.817C337.451 66.817 338.198 66.624 338.881 66.242C339.562 65.857 340.103 65.329 340.499 64.65C340.894 63.974 341.091 63.206 341.091 62.348C341.091 61.499 340.894 60.734 340.499 60.057C340.103 59.379 339.563 58.848 338.886 58.465C338.209 58.083 337.459 57.891 336.637 57.891C335.819 57.891 335.07 58.083 334.388 58.465C333.707 58.848 333.166 59.379 332.764 60.057C332.365 60.734 332.166 61.499 332.166 62.348C332.166 63.206 332.365 63.974 332.764 64.65C333.166 65.329 333.707 65.857 334.388 66.242C335.07 66.624 335.819 66.817 336.637 66.817ZM336.637 65.255C336.109 65.255 335.647 65.137 335.241 64.898C334.839 64.663 334.525 64.322 334.301 63.884C334.075 63.442 333.963 62.932 333.963 62.348C333.963 61.764 334.075 61.256 334.301 60.817C334.525 60.381 334.839 60.047 335.241 59.812C335.647 59.582 336.109 59.463 336.637 59.463C337.157 59.463 337.623 59.582 338.021 59.812C338.42 60.047 338.731 60.381 338.956 60.817C339.182 61.256 339.294 61.764 339.294 62.348C339.294 62.932 339.182 63.442 338.956 63.884C338.731 64.322 338.42 64.663 338.021 64.898C337.623 65.137 337.157 65.255 336.637 65.255Z" fill="#151F37"/>
<path d="M92.126 41.608H130.394V3.339H92.126V41.608Z" fill="#009FE3"/>
<path d="M40.937 3.339V18.33H26.437V3.339H17.116V41.607H26.437V25.853H40.937V41.607H50.259V3.339H40.937Z" fill="black"/>
<path d="M0 41.608H9.322V3.339H0V41.608Z" fill="black"/>
<path d="M84.331 10.808V3.339H58.054V41.607H84.331V34.138H67.374V25.752H81.875V18.33H67.374V10.808H84.331Z" fill="black"/>
<path d="M7.346 49.402H0V67.034H7.346C9.189 67.034 10.803 66.647 12.19 65.875C13.576 65.103 14.644 64.045 15.391 62.7C16.137 61.356 16.51 59.845 16.51 58.168C16.51 56.475 16.137 54.964 15.391 53.636C14.644 52.308 13.576 51.27 12.19 50.523C10.803 49.776 9.189 49.402 7.346 49.402ZM6.849 62.103H5.528V54.233H6.849C8.093 54.233 9.082 54.574 9.812 55.254C10.542 55.935 10.907 56.906 10.907 58.168C10.907 59.431 10.542 60.401 9.812 61.082C9.082 61.764 8.093 62.103 6.849 62.103Z" fill="black"/>
<path d="M32.909 53.81V49.402H20.449V67.034H32.909V62.626H25.977V60.135H31.456V55.976H25.977V53.81H32.909Z" fill="black"/>
<path d="M43.336 49.402H37.807V67.034H48.665V62.85H43.336V49.402Z" fill="black"/>
<path d="M53.207 49.402V67.034H58.736V60.384H63.716V56.225H58.736V53.785H65.66V49.402H53.207Z" fill="black"/>
<path d="M69.488 49.402V53.785H74.12V67.034H79.649V53.785H84.33V49.402H69.488Z" fill="black"/>
<path d="M145.984 18.849H150.296V3.33901H145.984V18.849ZM161.054 6.39701C160.218 6.39701 159.477 6.57001 158.832 6.91401C158.187 7.25901 157.673 7.71001 157.292 8.26701V6.50701H152.98V18.849H157.292V12.227C157.292 11.523 157.475 10.97 157.842 10.566C158.209 10.163 158.715 9.96101 159.36 9.96101C159.976 9.96101 160.467 10.163 160.834 10.566C161.201 10.97 161.384 11.523 161.384 12.227V18.849H165.696V11.655C165.696 10.042 165.278 8.76201 164.442 7.81601C163.606 6.87001 162.477 6.39701 161.054 6.39701ZM173.55 19.003C174.591 19.003 175.497 18.838 176.267 18.508C177.037 18.178 177.631 17.727 178.049 17.155C178.467 16.583 178.676 15.938 178.676 15.219C178.676 14.325 178.452 13.617 178.005 13.096C177.557 12.576 177.037 12.198 176.443 11.963C175.849 11.729 175.104 11.516 174.21 11.325C173.462 11.164 172.919 11.006 172.582 10.852C172.244 10.698 172.076 10.475 172.076 10.181C172.076 9.94701 172.167 9.76301 172.351 9.63101C172.534 9.49901 172.802 9.43301 173.154 9.43301C173.608 9.43301 173.971 9.54001 174.243 9.75201C174.514 9.96501 174.686 10.269 174.76 10.665H178.654C178.507 9.37501 177.972 8.33301 177.048 7.54101C176.124 6.74901 174.854 6.35301 173.242 6.35301C172.156 6.35301 171.229 6.52901 170.459 6.88101C169.689 7.23301 169.106 7.70601 168.71 8.30001C168.314 8.89401 168.116 9.55801 168.116 10.291C168.116 11.142 168.332 11.817 168.765 12.315C169.197 12.814 169.707 13.173 170.294 13.393C170.88 13.613 171.614 13.811 172.494 13.987C173.271 14.163 173.828 14.325 174.166 14.471C174.503 14.618 174.672 14.845 174.672 15.153C174.672 15.388 174.569 15.579 174.364 15.725C174.158 15.872 173.88 15.945 173.528 15.945C173.073 15.945 172.692 15.835 172.384 15.615C172.076 15.395 171.892 15.087 171.834 14.691H167.654C167.712 15.513 167.995 16.25 168.501 16.902C169.007 17.555 169.696 18.068 170.569 18.442C171.441 18.816 172.435 19.003 173.55 19.003ZM187.036 15.175C186.669 15.175 186.409 15.102 186.255 14.955C186.101 14.809 186.024 14.567 186.024 14.229V10.093H188.268V6.50701H186.024V3.51501H181.69V6.50701H180.172V10.093H181.69V14.163C181.69 17.287 183.266 18.849 186.42 18.849H188.29V15.175H187.036ZM192.668 5.36301C193.416 5.36301 194.021 5.15401 194.483 4.73601C194.945 4.31801 195.176 3.79401 195.176 3.16301C195.176 2.51801 194.945 1.98301 194.483 1.55701C194.021 1.13201 193.416 0.919006 192.668 0.919006C191.905 0.919006 191.293 1.13201 190.831 1.55701C190.369 1.98301 190.138 2.51801 190.138 3.16301C190.138 3.79401 190.369 4.31801 190.831 4.73601C191.293 5.15401 191.905 5.36301 192.668 5.36301ZM190.49 18.849H194.802V6.50701H190.49V18.849ZM203.514 15.175C203.147 15.175 202.887 15.102 202.733 14.955C202.579 14.809 202.502 14.567 202.502 14.229V10.093H204.746V6.50701H202.502V3.51501H198.168V6.50701H196.65V10.093H198.168V14.163C198.168 17.287 199.744 18.849 202.898 18.849H204.768V15.175H203.514ZM215.261 6.50701V13.129C215.261 13.833 215.078 14.387 214.711 14.79C214.345 15.194 213.846 15.395 213.215 15.395C212.599 15.395 212.104 15.194 211.729 14.79C211.356 14.387 211.169 13.833 211.169 13.129V6.50701H206.879V13.679C206.879 15.307 207.294 16.594 208.122 17.54C208.951 18.486 210.084 18.959 211.521 18.959C212.357 18.959 213.098 18.787 213.743 18.442C214.389 18.098 214.895 17.647 215.261 17.089V18.849H219.595V6.50701H215.261ZM228.307 15.175C227.94 15.175 227.68 15.102 227.526 14.955C227.372 14.809 227.295 14.567 227.295 14.229V10.093H229.539V6.50701H227.295V3.51501H222.961V6.50701H221.443V10.093H222.961V14.163C222.961 17.287 224.538 18.849 227.691 18.849H229.561V15.175H228.307ZM243.553 12.535C243.553 11.274 243.289 10.178 242.761 9.24601C242.233 8.31501 241.499 7.60001 240.561 7.10101C239.622 6.60301 238.544 6.35301 237.327 6.35301C236.095 6.35301 235.006 6.61001 234.06 7.12301C233.114 7.63701 232.377 8.36601 231.849 9.31201C231.321 10.258 231.057 11.377 231.057 12.667C231.057 13.958 231.324 15.08 231.86 16.033C232.395 16.987 233.136 17.72 234.082 18.233C235.028 18.747 236.109 19.003 237.327 19.003C238.339 19.003 239.263 18.813 240.099 18.431C240.935 18.05 241.628 17.526 242.178 16.858C242.728 16.191 243.098 15.432 243.289 14.581H238.691C238.383 15.227 237.869 15.549 237.151 15.549C236.637 15.549 236.216 15.384 235.886 15.054C235.556 14.724 235.369 14.222 235.325 13.547H243.487C243.531 13.21 243.553 12.873 243.553 12.535ZM235.347 11.457C235.449 10.9 235.669 10.478 236.007 10.192C236.344 9.90601 236.777 9.76301 237.305 9.76301C237.833 9.76301 238.273 9.91401 238.625 10.214C238.977 10.515 239.153 10.929 239.153 11.457H235.347ZM260.612 6.50701H258.677C258.705 6.03801 258.83 5.69701 259.051 5.48401C259.271 5.27201 259.614 5.16501 260.084 5.16501C260.289 5.16501 260.45 5.17301 260.568 5.18701V1.51301C260.377 1.49901 260.106 1.49101 259.754 1.49101C258.008 1.49101 256.67 1.91301 255.739 2.75601C254.808 3.60001 254.342 4.81301 254.342 6.39701V6.50701H253V10.093H254.342V18.849H258.677V10.093H260.612V6.50701ZM268.113 19.003C269.346 19.003 270.453 18.747 271.436 18.233C272.418 17.72 273.192 16.983 273.756 16.022C274.321 15.062 274.604 13.943 274.604 12.667C274.604 11.391 274.321 10.277 273.756 9.32301C273.192 8.37001 272.422 7.63701 271.446 7.12301C270.472 6.61001 269.367 6.35301 268.136 6.35301C266.903 6.35301 265.801 6.61001 264.824 7.12301C263.85 7.63701 263.079 8.37001 262.515 9.32301C261.95 10.277 261.667 11.391 261.667 12.667C261.667 13.958 261.946 15.08 262.503 16.033C263.062 16.987 263.827 17.72 264.803 18.233C265.778 18.747 266.881 19.003 268.113 19.003ZM268.113 15.263C267.513 15.263 267.021 15.043 266.64 14.603C266.258 14.163 266.067 13.518 266.067 12.667C266.067 11.831 266.266 11.193 266.661 10.753C267.058 10.313 267.549 10.093 268.136 10.093C268.723 10.093 269.217 10.313 269.62 10.753C270.024 11.193 270.226 11.831 270.226 12.667C270.226 13.503 270.024 14.145 269.62 14.592C269.217 15.04 268.715 15.263 268.113 15.263ZM280.896 8.68501V6.50701H276.583V18.849H280.896V13.459C280.896 12.55 281.122 11.912 281.577 11.545C282.032 11.179 282.729 10.995 283.667 10.995H284.877V6.39701C284.085 6.39701 283.345 6.60301 282.655 7.01301C281.966 7.42401 281.379 7.98101 280.896 8.68501ZM163.264 26.097L161.46 36.613L159.084 26.097H154.354L151.913 36.701L150.108 26.097H145.444L149.207 41.606H154.508L156.687 32.103L158.82 41.606H164.123L167.928 26.097H163.264ZM169.271 35.425C169.271 36.701 169.501 37.82 169.963 38.78C170.425 39.741 171.056 40.477 171.855 40.991C172.654 41.505 173.545 41.761 174.528 41.761C175.364 41.761 176.094 41.593 176.718 41.255C177.341 40.918 177.82 40.463 178.158 39.891V41.606H182.471V29.265H178.158V30.981C177.82 30.409 177.345 29.955 176.729 29.617C176.112 29.28 175.378 29.111 174.528 29.111C173.545 29.111 172.654 29.368 171.855 29.881C171.056 30.395 170.425 31.128 169.963 32.081C169.501 33.035 169.271 34.149 169.271 35.425ZM178.158 35.425C178.158 36.231 177.941 36.863 177.51 37.316C177.076 37.771 176.544 37.999 175.914 37.999C175.269 37.999 174.733 37.767 174.309 37.306C173.883 36.844 173.67 36.217 173.67 35.425C173.67 34.619 173.883 33.992 174.309 33.544C174.733 33.097 175.269 32.873 175.914 32.873C176.544 32.873 177.076 33.101 177.51 33.555C177.941 34.01 178.158 34.633 178.158 35.425ZM191.183 37.933C190.815 37.933 190.556 37.859 190.401 37.713C190.247 37.566 190.17 37.325 190.17 36.987V32.851H192.414V29.265H190.17V26.273H185.836V29.265H184.318V32.851H185.836V36.921C185.836 40.045 187.412 41.606 190.566 41.606H192.437V37.933H191.183ZM206.428 35.293C206.428 34.032 206.163 32.936 205.636 32.004C205.107 31.073 204.374 30.358 203.436 29.859C202.497 29.361 201.419 29.111 200.201 29.111C198.97 29.111 197.88 29.368 196.935 29.881C195.988 30.395 195.251 31.124 194.724 32.07C194.195 33.016 193.932 34.135 193.932 35.425C193.932 36.716 194.199 37.838 194.734 38.791C195.271 39.745 196.011 40.477 196.956 40.991C197.902 41.505 198.984 41.761 200.201 41.761C201.214 41.761 202.138 41.571 202.974 41.188C203.81 40.808 204.502 40.284 205.053 39.616C205.603 38.949 205.974 38.189 206.163 37.339H201.565C201.258 37.984 200.744 38.307 200.025 38.307C199.513 38.307 199.091 38.142 198.761 37.811C198.431 37.481 198.243 36.979 198.199 36.305H206.361C206.405 35.968 206.428 35.631 206.428 35.293ZM198.222 34.215C198.324 33.658 198.544 33.236 198.882 32.95C199.22 32.664 199.651 32.521 200.18 32.521C200.707 32.521 201.147 32.672 201.499 32.972C201.852 33.273 202.027 33.687 202.027 34.215H198.222ZM212.72 31.443V29.265H208.407V41.606H212.72V36.217C212.72 35.308 212.947 34.67 213.401 34.303C213.856 33.937 214.554 33.753 215.491 33.753H216.701V29.155C215.909 29.155 215.169 29.361 214.479 29.771C213.79 30.182 213.203 30.739 212.72 31.443ZM235.922 29.551V26.097H226V41.606H235.922V38.153H230.312V35.359H235.262V32.081H230.312V29.551H235.922ZM237.571 35.425C237.571 36.701 237.803 37.82 238.265 38.78C238.727 39.741 239.356 40.477 240.156 40.991C240.956 41.505 241.847 41.761 242.83 41.761C243.666 41.761 244.392 41.593 245.008 41.255C245.624 40.918 246.1 40.463 246.438 39.891V41.606H250.771V25.327H246.438V30.959C246.086 30.387 245.598 29.936 244.975 29.606C244.351 29.276 243.644 29.111 242.852 29.111C241.869 29.111 240.974 29.368 240.168 29.881C239.36 30.395 238.727 31.128 238.265 32.081C237.803 33.035 237.571 34.149 237.571 35.425ZM246.46 35.425C246.46 36.231 246.243 36.863 245.811 37.316C245.378 37.771 244.846 37.999 244.216 37.999C243.569 37.999 243.035 37.767 242.609 37.306C242.184 36.844 241.972 36.217 241.972 35.425C241.972 34.619 242.184 33.992 242.609 33.544C243.035 33.097 243.569 32.873 244.216 32.873C244.846 32.873 245.378 33.101 245.811 33.555C246.243 34.01 246.46 34.633 246.46 35.425ZM261.75 29.265V35.887C261.75 36.591 261.565 37.144 261.199 37.548C260.833 37.952 260.334 38.153 259.704 38.153C259.088 38.153 258.593 37.952 258.219 37.548C257.845 37.144 257.658 36.591 257.658 35.887V29.265H253.368V36.437C253.368 38.064 253.781 39.351 254.61 40.298C255.438 41.244 256.571 41.717 258.01 41.717C258.846 41.717 259.586 41.545 260.231 41.2C260.877 40.855 261.383 40.405 261.75 39.847V41.606H266.084V29.265H261.75ZM268.063 35.425C268.063 36.716 268.327 37.838 268.854 38.791C269.383 39.745 270.12 40.477 271.065 40.991C272.012 41.505 273.094 41.761 274.311 41.761C275.881 41.761 277.201 41.329 278.271 40.463C279.342 39.598 280.03 38.403 280.339 36.877H275.763C275.514 37.683 275.001 38.087 274.223 38.087C273.681 38.087 273.252 37.859 272.936 37.405C272.621 36.951 272.463 36.291 272.463 35.425C272.463 34.56 272.621 33.904 272.936 33.456C273.252 33.009 273.681 32.785 274.223 32.785C274.985 32.785 275.499 33.189 275.763 33.995H280.339C280.03 32.455 279.342 31.256 278.271 30.398C277.201 29.54 275.881 29.111 274.311 29.111C273.094 29.111 272.012 29.368 271.065 29.881C270.12 30.395 269.383 31.128 268.854 32.081C268.327 33.035 268.063 34.149 268.063 35.425ZM281.637 35.425C281.637 36.701 281.868 37.82 282.33 38.78C282.792 39.741 283.423 40.477 284.222 40.991C285.021 41.505 285.912 41.761 286.895 41.761C287.73 41.761 288.461 41.593 289.084 41.255C289.707 40.918 290.188 40.463 290.524 39.891V41.606H294.837V29.265H290.524V30.981C290.188 30.409 289.711 29.955 289.095 29.617C288.479 29.28 287.746 29.111 286.895 29.111C285.912 29.111 285.021 29.368 284.222 29.881C283.423 30.395 282.792 31.128 282.33 32.081C281.868 33.035 281.637 34.149 281.637 35.425ZM290.524 35.425C290.524 36.231 290.309 36.863 289.876 37.316C289.442 37.771 288.912 37.999 288.28 37.999C287.636 37.999 287.1 37.767 286.675 37.306C286.25 36.844 286.037 36.217 286.037 35.425C286.037 34.619 286.25 33.992 286.675 33.544C287.1 33.097 287.636 32.873 288.28 32.873C288.912 32.873 289.442 33.101 289.876 33.555C290.309 34.01 290.524 34.633 290.524 35.425ZM303.549 37.933C303.182 37.933 302.922 37.859 302.768 37.713C302.613 37.566 302.537 37.325 302.537 36.987V32.851H304.78V29.265H302.537V26.273H298.203V29.265H296.685V32.851H298.203V36.921C298.203 40.045 299.778 41.606 302.933 41.606H304.803V37.933H303.549ZM309.181 28.121C309.929 28.121 310.534 27.912 310.996 27.494C311.458 27.076 311.688 26.552 311.688 25.921C311.688 25.276 311.458 24.741 310.996 24.315C310.534 23.89 309.929 23.677 309.181 23.677C308.418 23.677 307.806 23.89 307.344 24.315C306.882 24.741 306.65 25.276 306.65 25.921C306.65 26.552 306.882 27.076 307.344 27.494C307.806 27.912 308.418 28.121 309.181 28.121ZM307.003 41.606H311.314V29.264H307.003V41.606ZM319.74 41.761C320.973 41.761 322.08 41.505 323.063 40.991C324.045 40.477 324.818 39.741 325.384 38.78C325.947 37.82 326.23 36.701 326.23 35.425C326.23 34.149 325.947 33.035 325.384 32.081C324.818 31.128 324.049 30.395 323.074 29.881C322.098 29.368 320.995 29.111 319.763 29.111C318.53 29.111 317.427 29.368 316.452 29.881C315.476 30.395 314.706 31.128 314.142 32.081C313.577 33.035 313.295 34.149 313.295 35.425C313.295 36.716 313.572 37.838 314.131 38.791C314.688 39.745 315.454 40.477 316.43 40.991C317.404 41.505 318.509 41.761 319.74 41.761ZM319.74 38.02C319.139 38.02 318.647 37.801 318.267 37.361C317.885 36.921 317.694 36.275 317.694 35.425C317.694 34.589 317.893 33.951 318.289 33.511C318.685 33.071 319.176 32.851 319.763 32.851C320.349 32.851 320.844 33.071 321.248 33.511C321.65 33.951 321.853 34.589 321.853 35.425C321.853 36.261 321.65 36.903 321.248 37.35C320.844 37.798 320.342 38.02 319.74 38.02ZM336.285 29.155C335.449 29.155 334.708 29.328 334.063 29.672C333.417 30.017 332.903 30.468 332.522 31.025V29.265H328.21V41.606H332.522V34.985C332.522 34.281 332.706 33.728 333.071 33.324C333.438 32.921 333.944 32.719 334.591 32.719C335.207 32.719 335.697 32.921 336.064 33.324C336.431 33.728 336.614 34.281 336.614 34.985V41.606H340.927V34.413C340.927 32.8 340.509 31.52 339.673 30.574C338.837 29.628 337.707 29.155 336.285 29.155ZM150.274 59.789V63.596C150.274 64.144 150.139 64.568 149.863 64.863C149.589 65.159 149.209 65.307 148.728 65.307C148.252 65.307 147.877 65.159 147.604 64.863C147.33 64.568 147.192 64.144 147.192 63.596V59.789H145.444V63.845C145.444 64.462 145.562 64.993 145.8 65.437C146.038 65.883 146.364 66.22 146.78 66.449C147.196 66.678 147.673 66.792 148.215 66.792C148.639 66.792 149.032 66.705 149.395 66.536C149.756 66.366 150.049 66.131 150.274 65.83V66.703H152.035V59.789H150.274ZM157.652 59.69C157.219 59.69 156.821 59.775 156.459 59.946C156.098 60.114 155.8 60.351 155.566 60.65V59.789H153.82V66.703H155.566V62.884C155.566 62.336 155.707 61.913 155.984 61.619C156.264 61.322 156.644 61.174 157.127 61.174C157.603 61.174 157.976 61.322 158.25 61.619C158.525 61.913 158.662 62.336 158.662 62.884V66.703H160.411V62.647C160.411 61.717 160.156 60.99 159.647 60.47C159.14 59.95 158.476 59.69 157.652 59.69ZM161.684 63.222C161.684 63.93 161.822 64.557 162.102 65.1C162.379 65.646 162.761 66.068 163.243 66.368C163.727 66.666 164.259 66.819 164.842 66.819C165.357 66.819 165.811 66.713 166.202 66.505C166.592 66.296 166.896 66.02 167.112 65.682V66.703H168.886V57.467H167.112V60.75C166.873 60.426 166.547 60.167 166.14 59.97C165.73 59.775 165.303 59.679 164.853 59.679C164.263 59.679 163.727 59.824 163.243 60.112C162.761 60.404 162.379 60.82 162.102 61.361C161.822 61.901 161.684 62.523 161.684 63.222ZM167.126 63.249C167.126 63.67 167.042 64.036 166.876 64.339C166.708 64.643 166.485 64.877 166.202 65.038C165.918 65.2 165.615 65.281 165.29 65.281C164.974 65.281 164.677 65.198 164.399 65.031C164.119 64.865 163.894 64.626 163.725 64.312C163.554 64.001 163.468 63.638 163.468 63.222C163.468 62.807 163.554 62.444 163.725 62.141C163.894 61.84 164.117 61.606 164.393 61.45C164.666 61.29 164.966 61.211 165.29 61.211C165.615 61.211 165.918 61.294 166.202 61.456C166.485 61.619 166.708 61.85 166.876 62.156C167.042 62.458 167.126 62.823 167.126 63.249ZM177.085 63.098C177.085 62.424 176.943 61.825 176.655 61.306C176.368 60.787 175.965 60.385 175.444 60.1C174.925 59.818 174.336 59.679 173.679 59.679C172.996 59.679 172.394 59.824 171.867 60.112C171.345 60.404 170.937 60.82 170.646 61.361C170.355 61.901 170.208 62.531 170.208 63.249C170.208 63.953 170.356 64.579 170.65 65.119C170.946 65.66 171.358 66.078 171.886 66.374C172.416 66.67 173.012 66.819 173.679 66.819C174.503 66.819 175.197 66.603 175.764 66.173C176.328 65.746 176.713 65.198 176.912 64.532H175.025C174.752 65.09 174.29 65.37 173.64 65.37C173.193 65.37 172.813 65.225 172.505 64.945C172.197 64.662 172.023 64.269 171.981 63.771H177.036C177.068 63.57 177.085 63.348 177.085 63.098ZM171.993 62.598C172.059 62.132 172.24 61.767 172.536 61.504C172.832 61.243 173.195 61.112 173.627 61.112C174.085 61.112 174.474 61.249 174.791 61.517C175.106 61.787 175.269 62.146 175.276 62.598H171.993ZM180.169 60.862V59.789H178.421V66.703H180.169V63.26C180.169 62.619 180.308 62.17 180.587 61.911C180.866 61.651 181.279 61.525 181.83 61.525H182.292V59.69C181.826 59.69 181.41 59.793 181.049 60.002C180.688 60.211 180.394 60.497 180.169 60.862ZM191.293 61.225V59.789H189.747V58.078H187.987V59.789H187.16V61.225H187.987V64.558C187.987 65.987 188.721 66.703 190.196 66.703H191.293V65.231H190.482C190.216 65.231 190.026 65.179 189.914 65.074C189.802 64.974 189.747 64.804 189.747 64.57V61.225H191.293ZM196.511 59.69C196.054 59.69 195.638 59.775 195.265 59.946C194.888 60.114 194.59 60.351 194.365 60.65V57.467H192.617V66.703H194.365V62.884C194.365 62.336 194.505 61.913 194.781 61.619C195.06 61.322 195.44 61.174 195.924 61.174C196.398 61.174 196.773 61.322 197.048 61.619C197.322 61.913 197.459 62.336 197.459 62.884V66.703H199.206V62.647C199.206 62.024 199.092 61.489 198.863 61.044C198.634 60.598 198.316 60.263 197.91 60.033C197.503 59.803 197.036 59.69 196.511 59.69ZM207.358 63.098C207.358 62.424 207.214 61.825 206.926 61.306C206.64 60.787 206.237 60.385 205.716 60.1C205.195 59.818 204.607 59.679 203.948 59.679C203.266 59.679 202.664 59.824 202.142 60.112C201.614 60.404 201.208 60.82 200.916 61.361C200.626 61.901 200.48 62.531 200.48 63.249C200.48 63.953 200.628 64.579 200.922 65.119C201.218 65.66 201.629 66.078 202.159 66.374C202.688 66.67 203.283 66.819 203.948 66.819C204.775 66.819 205.469 66.603 206.036 66.173C206.6 65.746 206.982 65.198 207.182 64.532H205.297C205.022 65.09 204.56 65.37 203.913 65.37C203.463 65.37 203.084 65.225 202.776 64.945C202.47 64.662 202.293 64.269 202.254 63.771H207.308C207.34 63.57 207.358 63.348 207.358 63.098ZM202.267 62.598C202.333 62.132 202.513 61.767 202.807 61.504C203.104 61.243 203.469 61.112 203.899 61.112C204.356 61.112 204.745 61.249 205.062 61.517C205.378 61.787 205.54 62.146 205.549 62.598H202.267ZM212.358 63.222C212.358 63.93 212.496 64.557 212.774 65.1C213.055 65.646 213.434 66.068 213.913 66.368C214.39 66.666 214.919 66.819 215.503 66.819C216.018 66.819 216.474 66.71 216.87 66.498C217.267 66.286 217.574 66.017 217.801 65.693V66.703H219.561V59.789H217.801V60.775C217.566 60.46 217.257 60.197 216.87 59.99C216.481 59.78 216.03 59.679 215.517 59.679C214.923 59.679 214.39 59.824 213.913 60.112C213.434 60.404 213.055 60.82 212.774 61.361C212.496 61.901 212.358 62.523 212.358 63.222ZM217.801 63.249C217.801 63.67 217.719 64.036 217.549 64.339C217.382 64.643 217.158 64.877 216.876 65.038C216.594 65.2 216.29 65.281 215.967 65.281C215.649 65.281 215.353 65.198 215.072 65.031C214.793 64.865 214.569 64.626 214.4 64.312C214.229 64.001 214.144 63.638 214.144 63.222C214.144 62.807 214.229 62.444 214.4 62.141C214.569 61.84 214.793 61.606 215.066 61.45C215.34 61.29 215.641 61.211 215.967 61.211C216.29 61.211 216.594 61.294 216.876 61.456C217.158 61.619 217.382 61.85 217.549 62.156C217.719 62.458 217.801 62.823 217.801 63.249ZM226.101 59.789V63.596C226.101 64.144 225.963 64.568 225.688 64.863C225.413 65.159 225.035 65.307 224.552 65.307C224.078 65.307 223.704 65.159 223.43 64.863C223.154 64.568 223.018 64.144 223.018 63.596V59.789H221.271V63.845C221.271 64.462 221.39 64.993 221.624 65.437C221.863 65.883 222.188 66.22 222.604 66.449C223.02 66.678 223.499 66.792 224.04 66.792C224.465 66.792 224.857 66.705 225.22 66.536C225.583 66.366 225.876 66.131 226.101 65.83V66.703H227.861V59.789H226.101ZM232.291 66.819C232.841 66.819 233.32 66.727 233.733 66.55C234.146 66.37 234.463 66.123 234.68 65.806C234.901 65.488 235.014 65.131 235.014 64.73C235.004 64.274 234.882 63.906 234.645 63.626C234.407 63.35 234.126 63.142 233.804 63.009C233.477 62.877 233.066 62.748 232.565 62.624C232.074 62.498 231.713 62.375 231.48 62.255C231.245 62.134 231.129 61.955 231.129 61.724C231.129 61.516 231.216 61.353 231.387 61.237C231.557 61.121 231.8 61.061 232.115 61.061C232.457 61.061 232.729 61.143 232.935 61.306C233.138 61.468 233.252 61.686 233.275 61.961H234.95C234.899 61.263 234.629 60.706 234.138 60.294C233.646 59.883 232.989 59.679 232.167 59.679C231.608 59.679 231.123 59.769 230.711 59.951C230.301 60.134 229.984 60.385 229.764 60.7C229.541 61.016 229.432 61.365 229.432 61.748C229.432 62.216 229.551 62.585 229.789 62.858C230.026 63.133 230.309 63.338 230.636 63.472C230.966 63.604 231.389 63.732 231.902 63.858C232.403 63.991 232.767 64.113 232.995 64.225C233.226 64.339 233.341 64.508 233.341 64.73C233.341 64.938 233.246 65.111 233.059 65.245C232.871 65.376 232.612 65.443 232.279 65.443C231.937 65.443 231.654 65.356 231.423 65.181C231.194 65.007 231.064 64.786 231.03 64.521H229.271C229.295 64.945 229.438 65.331 229.7 65.682C229.963 66.03 230.318 66.306 230.769 66.511C231.218 66.715 231.725 66.819 232.291 66.819ZM238.259 60.787V59.789H236.511V70H238.259V65.717C238.498 66.034 238.813 66.296 239.201 66.505C239.586 66.713 240.034 66.819 240.541 66.819C241.133 66.819 241.668 66.666 242.146 66.368C242.622 66.068 243.002 65.646 243.282 65.1C243.561 64.557 243.699 63.93 243.699 63.222C243.699 62.515 243.561 61.892 243.282 61.354C243.002 60.818 242.622 60.404 242.146 60.112C241.668 59.824 241.133 59.679 240.541 59.679C240.034 59.679 239.582 59.783 239.188 59.996C238.791 60.209 238.48 60.472 238.259 60.787ZM241.913 63.222C241.913 63.646 241.828 64.013 241.66 64.318C241.488 64.628 241.266 64.865 240.985 65.031C240.707 65.198 240.405 65.281 240.079 65.281C239.765 65.281 239.465 65.2 239.188 65.038C238.908 64.877 238.683 64.639 238.515 64.333C238.342 64.024 238.259 63.662 238.259 63.249C238.259 62.831 238.342 62.468 238.515 62.162C238.683 61.852 238.908 61.619 239.188 61.456C239.465 61.294 239.765 61.211 240.079 61.211C240.405 61.211 240.707 61.29 240.985 61.45C241.266 61.606 241.488 61.84 241.66 62.141C241.828 62.444 241.913 62.807 241.913 63.222ZM245.923 58.965C246.23 58.965 246.484 58.867 246.689 58.672C246.893 58.476 246.995 58.232 246.995 57.94C246.995 57.65 246.893 57.408 246.689 57.213C246.484 57.017 246.23 56.919 245.923 56.919C245.612 56.919 245.358 57.017 245.155 57.213C244.948 57.408 244.847 57.65 244.847 57.94C244.847 58.232 244.948 58.476 245.155 58.672C245.358 58.867 245.612 58.965 245.923 58.965ZM245.035 66.703H246.783V59.789H245.035V66.703ZM248.118 63.249C248.118 63.963 248.265 64.589 248.554 65.125C248.848 65.662 249.249 66.078 249.766 66.374C250.28 66.67 250.872 66.819 251.539 66.819C252.388 66.819 253.094 66.596 253.66 66.155C254.227 65.714 254.605 65.119 254.796 64.372H252.912C252.695 65.003 252.233 65.318 251.525 65.318C251.026 65.318 250.632 65.139 250.34 64.774C250.048 64.413 249.904 63.904 249.904 63.249C249.904 62.581 250.048 62.069 250.34 61.705C250.632 61.344 251.026 61.162 251.525 61.162C251.875 61.162 252.169 61.249 252.403 61.419C252.643 61.59 252.812 61.823 252.912 62.124H254.796C254.605 61.35 254.229 60.747 253.666 60.319C253.105 59.892 252.396 59.679 251.539 59.679C250.872 59.679 250.28 59.826 249.766 60.12C249.249 60.416 248.848 60.832 248.554 61.367C248.265 61.904 248.118 62.531 248.118 63.249ZM262.573 63.098C262.573 62.424 262.429 61.825 262.141 61.306C261.854 60.787 261.45 60.385 260.932 60.1C260.409 59.818 259.821 59.679 259.164 59.679C258.481 59.679 257.88 59.824 257.355 60.112C256.832 60.404 256.422 60.82 256.132 61.361C255.842 61.901 255.694 62.531 255.694 63.249C255.694 63.953 255.844 64.579 256.138 65.119C256.434 65.66 256.844 66.078 257.375 66.374C257.903 66.67 258.499 66.819 259.164 66.819C259.99 66.819 260.683 66.603 261.249 66.173C261.815 65.746 262.198 65.198 262.397 64.532H260.512C260.239 65.09 259.775 65.37 259.129 65.37C258.679 65.37 258.3 65.225 257.992 64.945C257.685 64.662 257.507 64.269 257.468 63.771H262.521C262.556 63.57 262.573 63.348 262.573 63.098ZM257.478 62.598C257.546 62.132 257.728 61.767 258.021 61.504C258.317 61.243 258.683 61.112 259.112 61.112C259.572 61.112 259.961 61.249 260.276 61.517C260.593 61.787 260.754 62.146 260.762 62.598H257.478ZM266.554 66.819C267.104 66.819 267.584 66.727 267.994 66.55C268.408 66.37 268.724 66.123 268.947 65.806C269.166 65.488 269.274 65.131 269.274 64.73C269.267 64.274 269.145 63.906 268.907 63.626C268.669 63.35 268.387 63.142 268.065 63.009C267.741 62.877 267.327 62.748 266.828 62.624C266.337 62.498 265.976 62.375 265.741 62.255C265.511 62.134 265.392 61.955 265.392 61.724C265.392 61.516 265.479 61.353 265.648 61.237C265.822 61.121 266.063 61.061 266.379 61.061C266.72 61.061 266.994 61.143 267.197 61.306C267.4 61.468 267.515 61.686 267.54 61.961H269.211C269.162 61.263 268.892 60.706 268.402 60.294C267.909 59.883 267.252 59.679 266.43 59.679C265.871 59.679 265.386 59.769 264.974 59.951C264.563 60.134 264.248 60.385 264.025 60.7C263.806 61.016 263.695 61.365 263.695 61.748C263.695 62.216 263.813 62.585 264.051 62.858C264.289 63.133 264.571 63.338 264.9 63.472C265.229 63.604 265.65 63.732 266.167 63.858C266.664 63.991 267.029 64.113 267.261 64.225C267.487 64.339 267.602 64.508 267.602 64.73C267.602 64.938 267.509 65.111 267.321 65.245C267.134 65.376 266.876 65.443 266.542 65.443C266.201 65.443 265.917 65.356 265.688 65.181C265.457 65.007 265.327 64.786 265.293 64.521H263.536C263.56 64.945 263.701 65.331 263.966 65.682C264.227 66.03 264.581 66.306 265.033 66.511C265.479 66.715 265.99 66.819 266.554 66.819ZM277.227 66.842C277.901 66.842 278.509 66.692 279.056 66.397C279.6 66.102 280.032 65.686 280.354 65.144C280.673 64.602 280.835 63.978 280.835 63.271C280.835 62.564 280.677 61.939 280.365 61.4C280.052 60.858 279.626 60.441 279.085 60.144C278.542 59.85 277.942 59.702 277.274 59.702C276.609 59.702 276.008 59.85 275.467 60.144C274.925 60.441 274.498 60.858 274.187 61.4C273.875 61.939 273.717 62.564 273.717 63.271C273.717 63.978 273.871 64.602 274.173 65.144C274.477 65.686 274.895 66.102 275.428 66.397C275.96 66.692 276.562 66.842 277.227 66.842ZM277.227 65.318C276.726 65.318 276.312 65.142 275.983 64.786C275.654 64.433 275.49 63.928 275.49 63.271C275.49 62.614 275.658 62.109 275.996 61.754C276.333 61.402 276.751 61.225 277.25 61.225C277.749 61.225 278.172 61.402 278.519 61.754C278.862 62.109 279.036 62.614 279.036 63.271C279.036 63.713 278.953 64.087 278.785 64.394C278.621 64.703 278.398 64.933 278.12 65.086C277.84 65.24 277.542 65.318 277.227 65.318ZM285.351 59.812H284.142V59.526C284.142 59.136 284.224 58.865 284.39 58.716C284.558 58.565 284.852 58.496 285.275 58.503V57.029C284.303 57.006 283.575 57.192 283.092 57.592C282.61 57.992 282.368 58.615 282.368 59.463V59.812H281.58V61.25H282.368V66.729H284.142V61.25H285.351V59.812ZM290.551 58.017V63.397C290.551 64.137 290.706 64.762 291.015 65.275C291.322 65.786 291.738 66.171 292.267 66.43C292.796 66.686 293.386 66.817 294.034 66.817C294.691 66.817 295.287 66.686 295.824 66.43C296.362 66.171 296.79 65.786 297.11 65.275C297.432 64.762 297.592 64.137 297.592 63.397V58.017H295.832V63.407C295.832 63.999 295.68 64.45 295.368 64.762C295.063 65.074 294.624 65.23 294.059 65.23C293.502 65.23 293.07 65.074 292.76 64.762C292.452 64.45 292.299 63.999 292.299 63.407V58.017H290.551ZM306.79 58.005H305.043V63.995L301.087 58.005H299.339V66.729H301.087V60.749L305.043 66.729H306.79V58.005ZM313.63 59.426V58.005H308.576V66.729H313.63V65.305H310.321V62.996H313.257V61.611H310.321V59.426H313.63ZM318.286 66.817C318.927 66.817 319.479 66.697 319.944 66.459C320.41 66.223 320.766 65.904 321.008 65.505C321.249 65.105 321.369 64.674 321.369 64.208C321.369 63.665 321.241 63.229 320.982 62.896C320.724 62.564 320.416 62.315 320.06 62.146C319.7 61.98 319.238 61.814 318.673 61.647C318.258 61.524 317.933 61.414 317.706 61.316C317.477 61.223 317.285 61.097 317.132 60.943C316.978 60.789 316.9 60.596 316.9 60.363C316.9 60.031 317.003 59.776 317.205 59.601C317.41 59.426 317.684 59.339 318.023 59.339C318.416 59.339 318.729 59.437 318.966 59.633C319.203 59.828 319.329 60.076 319.349 60.375H321.271C321.211 59.594 320.901 58.984 320.337 58.546C319.777 58.109 319.047 57.891 318.147 57.891C317.548 57.891 317.018 57.994 316.55 58.197C316.086 58.402 315.723 58.694 315.465 59.078C315.206 59.46 315.078 59.909 315.078 60.424C315.078 60.975 315.204 61.414 315.461 61.742C315.713 62.071 316.017 62.317 316.37 62.478C316.724 62.642 317.183 62.806 317.749 62.972C318.165 63.088 318.491 63.195 318.729 63.291C318.966 63.386 319.163 63.516 319.323 63.682C319.479 63.85 319.559 64.062 319.559 64.318C319.559 64.635 319.445 64.891 319.211 65.086C318.979 65.283 318.656 65.38 318.248 65.38C317.85 65.38 317.534 65.277 317.308 65.068C317.078 64.861 316.952 64.577 316.927 64.22H315.053C315.063 64.753 315.206 65.213 315.49 65.605C315.774 65.994 316.159 66.295 316.645 66.505C317.132 66.711 317.68 66.817 318.286 66.817ZM322.518 62.359C322.518 63.216 322.711 63.982 323.1 64.658C323.484 65.33 324.013 65.855 324.682 66.237C325.354 66.613 326.104 66.804 326.937 66.804C327.919 66.804 328.772 66.556 329.501 66.061C330.23 65.565 330.739 64.873 331.029 63.982H329.02C328.82 64.399 328.538 64.713 328.179 64.924C327.816 65.137 327.397 65.244 326.923 65.244C326.415 65.244 325.966 65.125 325.569 64.887C325.173 64.65 324.867 64.312 324.646 63.878C324.425 63.44 324.314 62.935 324.314 62.359C324.314 61.777 324.425 61.268 324.646 60.838C324.867 60.404 325.173 60.07 325.569 59.832C325.966 59.596 326.415 59.475 326.923 59.475C327.397 59.475 327.816 59.582 328.179 59.788C328.538 59.996 328.82 60.309 329.02 60.723H331.029C330.739 59.842 330.229 59.151 329.497 58.652C328.761 58.153 327.909 57.904 326.937 57.904C326.104 57.904 325.354 58.093 324.682 58.474C324.013 58.85 323.484 59.379 323.1 60.057C322.711 60.734 322.518 61.502 322.518 62.359ZM336.637 66.817C337.451 66.817 338.198 66.624 338.881 66.242C339.562 65.857 340.103 65.329 340.499 64.65C340.894 63.974 341.091 63.206 341.091 62.348C341.091 61.499 340.894 60.734 340.499 60.057C340.103 59.379 339.563 58.848 338.886 58.465C338.209 58.083 337.459 57.891 336.637 57.891C335.819 57.891 335.07 58.083 334.388 58.465C333.707 58.848 333.166 59.379 332.764 60.057C332.365 60.734 332.166 61.499 332.166 62.348C332.166 63.206 332.365 63.974 332.764 64.65C333.166 65.329 333.707 65.857 334.388 66.242C335.07 66.624 335.819 66.817 336.637 66.817ZM336.637 65.255C336.109 65.255 335.647 65.137 335.241 64.898C334.839 64.663 334.525 64.322 334.301 63.884C334.075 63.442 333.963 62.932 333.963 62.348C333.963 61.764 334.075 61.256 334.301 60.817C334.525 60.381 334.839 60.047 335.241 59.812C335.647 59.582 336.109 59.463 336.637 59.463C337.157 59.463 337.623 59.582 338.021 59.812C338.42 60.047 338.731 60.381 338.956 60.817C339.182 61.256 339.294 61.764 339.294 62.348C339.294 62.932 339.182 63.442 338.956 63.884C338.731 64.322 338.42 64.663 338.021 64.898C337.623 65.137 337.157 65.255 336.637 65.255Z" fill="black"/>
</g>
<defs>
<clipPath id="clip0_126_26761">
<rect width="342" height="70" fill="white"/>
</clipPath>
</defs>
</svg>
